<svg enable-background="new 0 0 70.3 21.1" viewBox="0 0 70.3 21.1" xmlns="http://www.w3.org/2000/svg"><g fill="#293134"><path d="m37.2 11.7c-.4-.5-1-.8-1.7-1 .6-.2 1.1-.5 1.4-1 .4-.5.6-1.1.6-1.8 0-1-.4-1.8-1.2-2.4s-1.8-.9-3.1-.9h-5.8v12.6h6c1.4 0 2.5-.3 3.2-.9.8-.6 1.2-1.5 1.2-2.5.1-.9-.2-1.5-.6-2.1zm-7-5h2.6c.7 0 1.2.1 1.6.4.3.2.5.6.5 1.1s-.2.9-.5 1.1-.9.4-1.6.4h-2.6zm4.5 8c-.3.3-.9.4-1.6.4h-3v-3.2h3c.7 0 1.3.1 1.6.4s.5.7.5 1.2c.1.6-.1 1-.5 1.2z"/><path d="m39.6 17.2v-13h2.7v13.1h-2.7z"/><path d="m44.4 4h2.9v2.5h-2.9zm.1 13.2v-9h2.7v9z"/><path d="m58.1 11.8v5.4h-2.7v-5.3c0-.6-.1-1.1-.4-1.4-.2-.3-.6-.4-1.1-.4-.6 0-1.1.2-1.4.6s-.5.9-.5 1.5v5h-2.7v-6.4c0-.4 0-.8 0-1.3 0-.4 0-.9-.1-1.3h2.5l.2 1.5c.3-.5.7-.9 1.1-1.2.5-.3 1.2-.5 1.9-.5 2.1 0 3.2 1.2 3.2 3.8z"/><path d="m69.7 17.2h-3.3l-3.5-4v4h-2.7v-13h2.7v7.9l3.3-3.9h3.3l-3.9 4.3z"/></g><path d="m0 2.8c0-1.5 1.3-2.8 2.8-2.8h15.5c1.5 0 2.8 1.3 2.8 2.8v15.5c0 1.5-1.3 2.8-2.8 2.8h-15.5c-1.5 0-2.8-1.3-2.8-2.8z" fill="#3080e3"/><path d="m10.6 5.1-3.3 5.5h3.3z" fill="#fcfbf9"/><path d="m10.6 16.2 3.2-5.6h-3.2z" fill="#fcfbf9"/></svg>