<svg fill="none" height="43" viewBox="0 0 53 43" width="53" xmlns="http://www.w3.org/2000/svg" xmlns:xlink="http://www.w3.org/1999/xlink"><mask id="a" fill="#fff"><path d="m52.5255 27.9567c-1.8117 3.1997-4.2358 6.0113-7.1341 8.2742-2.8982 2.2629-6.2138 3.9328-9.7574 4.9143-3.5435.9815-7.2458 1.2554-10.8952.8062-3.6495-.4493-7.1747-1.613-10.3745-3.4246-3.1997-1.8117-6.01127-4.2359-8.27415-7.1341s-3.93275-6.2138-4.91427-9.7574c-.981518-3.5436-1.2554647-7.2458-.806197-10.8953.449268-3.64942 1.612947-7.17466 3.424607-10.374397l24.36561 13.795597z" fill="#fff"/></mask><path d="m52.5255 27.9567c-1.8117 3.1997-4.2358 6.0113-7.1341 8.2742-2.8982 2.2629-6.2138 3.9328-9.7574 4.9143-3.5435.9815-7.2458 1.2554-10.8952.8062-3.6495-.4493-7.1747-1.613-10.3745-3.4246-3.1997-1.8117-6.01127-4.2359-8.27415-7.1341s-3.93275-6.2138-4.91427-9.7574c-.981518-3.5436-1.2554647-7.2458-.806197-10.8953.449268-3.64942 1.612947-7.17466 3.424607-10.374397l24.36561 13.795597z" mask="url(#a)" stroke="#cacfdb" stroke-width="4"/></svg>