<svg fill="none" height="384" viewBox="0 0 570 384" width="570" xmlns="http://www.w3.org/2000/svg" xmlns:xlink="http://www.w3.org/1999/xlink"><linearGradient id="a" gradientUnits="userSpaceOnUse" x1="-.000006" x2="600.557" y1="365.66" y2="93.1275"><stop offset="0" stop-color="#ff8245"/><stop offset="1" stop-color="#ff855f"/></linearGradient><linearGradient id="b" gradientUnits="userSpaceOnUse" x1="111.871" x2="111.871" y1="235.425" y2="326.421"><stop offset="0" stop-color="#f0f0f0"/><stop offset="1" stop-color="#fff" stop-opacity=".01"/></linearGradient><rect fill="url(#a)" height="384" rx="25" width="570"/><path d="m42 65c0-11.0457 8.9543-20 20-20h446c11.046 0 20 8.9543 20 20v319h-486z" fill="#fff"/><path clip-rule="evenodd" d="m111.871 235.425h203.403v90.996h-203.403z" fill="url(#b)" fill-rule="evenodd" opacity=".7"/><path d="m359.43 343.362c.944-.633 1.699-1.26 2.265-1.882.566-.627.849-1.21.849-1.749 0-.333-.086-.599-.258-.799-.166-.205-.438-.308-.816-.308-.388 0-.683.125-.882.375-.2.244-.311.583-.333 1.015h-.75c.039-.655.242-1.157.608-1.507.366-.355.838-.532 1.416-.532.549 0 .985.147 1.307.441s.483.71.483 1.249c0 .444-.145.896-.433 1.357-.283.455-.641.88-1.074 1.274-.428.389-.869.719-1.324.991h2.981v.624h-4.039zm4.849-2.39c0 .944.156 1.679.467 2.207.311.527.849.791 1.615.791s1.305-.264 1.615-.791c.317-.528.475-1.263.475-2.207 0-.933-.158-1.662-.475-2.19-.31-.527-.849-.791-1.615-.791s-1.304.264-1.615.791c-.311.522-.467 1.252-.467 2.19zm3.423 0c0 .483-.036.888-.109 1.216-.066.322-.197.58-.391.774s-.475.291-.841.291c-.361 0-.638-.097-.833-.291-.194-.194-.327-.452-.399-.774-.067-.328-.1-.733-.1-1.216 0-.477.033-.877.1-1.199.072-.322.205-.577.399-.766.195-.194.472-.291.833-.291.366 0 .647.097.841.291.194.189.325.444.391.766.073.322.109.722.109 1.199z" fill="#d3d3d5"/><path clip-rule="evenodd" d="m362 161.903c0-1.051.852-1.903 1.903-1.903 1.051 0 1.903.852 1.903 1.903v162.115c0 1.052-.852 1.904-1.903 1.904-1.051 0-1.903-.852-1.903-1.904z" fill="#f6f8fa" fill-rule="evenodd"/><rect fill="#39de7b" height="18.6367" rx="1.90319" width="3.80637" x="362" y="179.54"/><rect fill="#f97534" height="71.8821" rx="1.90319" width="3.80637" x="362" y="253.829"/><path d="m335.311 338.782v-.708h1.682v5.871h-.799v-5.163zm2.873.675c0-.289.078-.553.234-.791.155-.239.385-.428.691-.567.305-.138.669-.208 1.09-.208.422 0 .783.07 1.083.208.305.139.536.328.691.567.155.238.233.502.233.791 0 .327-.089.61-.266.849-.178.239-.447.408-.808.508.389.105.691.288.908.549.216.261.324.583.324.966 0 .555-.197.991-.591 1.308-.394.316-.919.474-1.574.474s-1.179-.158-1.573-.474c-.394-.317-.591-.753-.591-1.308 0-.383.105-.705.316-.966.216-.261.519-.444.908-.549-.361-.1-.63-.269-.808-.508s-.267-.522-.267-.849zm.75.108c0 .333.114.591.341.774.228.178.536.267.924.267.389 0 .694-.089.916-.267.228-.183.342-.441.342-.774s-.114-.589-.342-.766c-.227-.183-.533-.275-.916-.275s-.691.092-.924.275c-.227.177-.341.433-.341.766zm-.158 2.723c0 .377.127.671.383.882.255.206.602.308 1.04.308.433 0 .778-.105 1.033-.316s.383-.502.383-.874c0-.378-.133-.664-.4-.858-.266-.194-.605-.291-1.016-.291-.416 0-.757.097-1.024.291-.266.194-.399.48-.399.858z" fill="#d3d3d5"/><path clip-rule="evenodd" d="m337 165c0-.09 0-.135.002-.173.039-.991.834-1.786 1.825-1.825.038-.002.083-.002.173-.002.09 0 .135 0 .173.002.991.039 1.786.834 1.825 1.825.002.038.002.083.002.173v159c0 .09 0 .135-.002.173-.039.991-.834 1.786-1.825 1.825-.038.002-.083.002-.173.002-.09 0-.135 0-.173-.002-.991-.039-1.786-.834-1.825-1.825-.002-.038-.002-.083-.002-.173z" fill="#f6f8fa" fill-rule="evenodd"/><rect fill="#396aee" height="17.8284" rx="1.90319" width="3.80637" x="337.001" y="219.019"/><rect fill="#f97534" height="61.6983" rx="1.90319" width="3.80637" x="337.001" y="264.246"/><path d="m311.327 338.782v-.708h1.682v5.871h-.799v-5.163zm6.071.858c-.044-.35-.164-.619-.358-.808-.189-.194-.452-.291-.791-.291-.472 0-.83.183-1.074.549-.239.367-.358.947-.358 1.74l.008.309c.083-.333.275-.597.575-.791.299-.2.652-.3 1.057-.3.583 0 1.038.175 1.366.524.333.35.499.839.499 1.466 0 .366-.072.699-.216.999-.144.294-.367.53-.666.708-.294.172-.661.258-1.099.258-.839 0-1.416-.264-1.732-.791-.311-.527-.467-1.244-.467-2.148 0-1.044.167-1.827.5-2.348.339-.528.888-.791 1.649-.791.56 0 .991.158 1.29.474.306.317.486.73.541 1.241zm-2.49 2.273c0 .405.117.747.35 1.024.239.272.594.408 1.066.408.389 0 .699-.114.933-.341.233-.233.349-.558.349-.975 0-.449-.116-.791-.349-1.024-.234-.238-.556-.358-.966-.358-.233 0-.456.047-.666.142-.211.094-.383.239-.517.433-.133.189-.2.419-.2.691z" fill="#d3d3d5"/><path clip-rule="evenodd" d="m313 203.951c0-1.051.852-1.904 1.903-1.904 1.051 0 1.903.853 1.903 1.904v120.146c0 1.051-.852 1.903-1.903 1.903-1.051 0-1.903-.852-1.903-1.903z" fill="#f6f8fa" fill-rule="evenodd"/><path clip-rule="evenodd" d="m314.904 208.987c1.051 0 1.903.976 1.903 2.181v26.181c0 1.205-.852 2.182-1.903 2.182s-1.904-.977-1.904-2.182v-26.181c0-1.205.853-2.181 1.904-2.181z" fill="#39de7b" fill-rule="evenodd"/><path clip-rule="evenodd" d="m314.904 163c1.051 0 1.903.977 1.903 2.182v26.181c0 1.205-.852 2.182-1.903 2.182s-1.904-.977-1.904-2.182v-26.181c0-1.205.853-2.182 1.904-2.182z" fill="#39de7b" fill-rule="evenodd"/><path clip-rule="evenodd" d="m291 170.509c1.105 0 2 1.237 2 2.146v19.738c0 .908-.895 2.145-2 2.145s-2-1.237-2-2.145v-19.738c0-.909.895-2.146 2-2.146z" fill="#39de7b" fill-rule="evenodd"/><rect fill="#f97534" height="33.7891" rx="1.90319" width="3.80637" x="313" y="292.082"/><path clip-rule="evenodd" d="m289 162c0-.09 0-.135.002-.173.039-.991.834-1.786 1.825-1.825.038-.002.083-.002.173-.002.09 0 .135 0 .173.002.991.039 1.786.834 1.825 1.825.002.038.002.083.002.173v162c0 .09 0 .135-.002.173-.039.991-.834 1.786-1.825 1.825-.038.002-.083.002-.173.002-.09 0-.135 0-.173-.002-.991-.039-1.786-.834-1.825-1.825-.002-.038-.002-.083-.002-.173z" fill="#f6f8fa" fill-rule="evenodd"/><rect fill="#396aee" height="19.0022" rx="1.90319" width="3.80637" x="289" y="219.129"/><rect fill="#f97534" height="53.6348" rx="1.90319" width="3.80637" x="289" y="271.942"/><path d="m287.331 338.782v-.708h1.682v5.871h-.799v-5.163zm2.541 3.814v-.633l3.014-3.93h.816v3.905h.866v.658h-.866v1.349h-.766v-1.349zm3.114-3.639-2.315 2.981h2.315z" fill="#d3d3d5"/><path d="m463.386 343.417c.943-.633 1.698-1.26 2.264-1.882.567-.627.85-1.21.85-1.748 0-.333-.086-.6-.258-.8-.167-.205-.439-.308-.816-.308-.389 0-.683.125-.883.375-.2.244-.311.583-.333 1.016h-.75c.039-.655.242-1.157.608-1.507.367-.355.839-.533 1.416-.533.549 0 .985.147 1.307.441s.483.711.483 1.249c0 .444-.144.897-.433 1.357-.283.456-.641.88-1.074 1.274-.428.389-.869.719-1.324.991h2.981v.625h-4.038zm4.965-3.905c0-.289.078-.552.233-.791.156-.239.386-.427.692-.566.305-.139.668-.208 1.09-.208s.783.069 1.083.208c.305.139.535.327.691.566.155.239.233.502.233.791 0 .328-.089.611-.266.849-.178.239-.447.408-.808.508.388.106.691.289.907.55.217.261.325.583.325.966 0 .555-.197.991-.591 1.307s-.919.475-1.574.475-1.179-.159-1.573-.475c-.395-.316-.592-.752-.592-1.307 0-.383.106-.705.317-.966.216-.261.519-.444.907-.55-.36-.1-.63-.269-.807-.508-.178-.238-.267-.521-.267-.849zm.75.108c0 .333.113.591.341.775.228.177.536.266.924.266.389 0 .694-.089.916-.266.228-.184.342-.442.342-.775s-.114-.588-.342-.766c-.227-.183-.533-.275-.916-.275s-.691.092-.924.275c-.228.178-.341.433-.341.766zm-.159 2.723c0 .378.128.672.383.883.256.205.603.308 1.041.308.433 0 .777-.106 1.033-.317.255-.211.383-.502.383-.874 0-.377-.133-.663-.4-.858-.266-.194-.605-.291-1.016-.291-.416 0-.757.097-1.024.291-.266.195-.4.481-.4.858z" fill="#d3d3d5"/><path clip-rule="evenodd" d="m466.001 189.732c0-1.051.852-1.903 1.903-1.903 1.051 0 1.903.852 1.903 1.903v133.351c0 1.051-.852 1.903-1.903 1.903-1.051 0-1.903-.852-1.903-1.903z" fill="#f6f8fa" fill-rule="evenodd"/><rect fill="#a2a3ac" height="21.9948" opacity=".5" rx="1.90319" width="3.80637" x="466" y="224.069"/><rect fill="#a2a3ac" height="21.9948" opacity=".5" rx="1.90319" width="3.80637" x="466" y="160"/><rect fill="#c3c5cb" height="6.58903" opacity=".5" rx="1.90319" width="3.80637" x="466" y="197.713"/><rect fill="#cbcdd2" height="46.2424" rx="1.90319" width="3.80637" x="466" y="278.758"/><path d="m437.402 343.417c.943-.633 1.698-1.26 2.265-1.882.566-.627.849-1.21.849-1.748 0-.333-.086-.6-.258-.8-.167-.205-.439-.308-.816-.308-.389 0-.683.125-.883.375-.2.244-.311.583-.333 1.016h-.749c.039-.655.241-1.157.608-1.507.366-.355.838-.533 1.415-.533.55 0 .985.147 1.307.441s.483.711.483 1.249c0 .444-.144.897-.433 1.357-.283.456-.641.88-1.074 1.274-.427.389-.869.719-1.324.991h2.981v.625h-4.038zm8.163-3.722c-.044-.349-.164-.619-.358-.807-.189-.195-.453-.292-.791-.292-.472 0-.83.183-1.074.55-.239.366-.358.946-.358 1.74l.008.308c.083-.333.275-.597.575-.791.299-.2.652-.3 1.057-.3.583 0 1.038.175 1.366.525.333.35.499.838.499 1.465 0 .367-.072.7-.216.999-.145.295-.367.531-.666.708-.295.172-.661.258-1.1.258-.838 0-1.415-.263-1.731-.791-.311-.527-.467-1.243-.467-2.148 0-1.044.167-1.826.5-2.348.338-.527.888-.791 1.649-.791.56 0 .99.158 1.29.475.305.316.486.73.541 1.24zm-2.49 2.273c0 .406.117.747.35 1.025.239.271.594.407 1.066.407.388 0 .699-.113.932-.341.234-.233.35-.558.35-.974 0-.45-.116-.791-.35-1.024-.233-.239-.555-.358-.965-.358-.234 0-.456.047-.667.141-.211.095-.383.239-.516.433-.133.189-.2.419-.2.691z" fill="#d3d3d5"/><path clip-rule="evenodd" d="m440 161.903c0-1.051.852-1.903 1.903-1.903 1.051 0 1.903.852 1.903 1.903v160.736c0 1.051-.852 1.903-1.903 1.903-1.051 0-1.903-.852-1.903-1.903z" fill="#f6f8fa" fill-rule="evenodd"/><rect fill="#c3c5cb" height="15.7906" opacity=".5" rx="1.90319" width="3.80637" x="440" y="175.019"/><rect fill="#cbcdd2" height="66.1924" rx="1.90319" width="3.80637" x="440" y="258.808"/><path d="m491.981 337.972c.377 0 .702.066.974.199.272.134.477.317.616.55s.208.497.208.791c0 .366-.108.674-.324.924-.211.25-.522.4-.933.45v.05c.427.111.76.283.999.516.244.233.366.555.366.966 0 .483-.16.877-.482 1.182-.322.306-.786.458-1.391.458s-1.096-.155-1.474-.466c-.372-.316-.591-.777-.658-1.382h.75c.05.366.189.658.416.874.233.217.547.325.941.325.372 0 .658-.095.858-.283.2-.195.299-.444.299-.75 0-.366-.144-.644-.433-.832-.283-.195-.688-.292-1.215-.292h-.2v-.633h.2c1.021 0 1.532-.341 1.532-1.024 0-.299-.095-.538-.283-.716-.189-.177-.45-.266-.783-.266s-.613.097-.841.291c-.227.189-.361.469-.4.841h-.741c.039-.555.231-.988.575-1.299.35-.316.824-.474 1.424-.474zm2.888 3.055c0 .944.155 1.68.466 2.207s.849.791 1.616.791c.766 0 1.304-.264 1.615-.791.316-.527.474-1.263.474-2.207 0-.932-.158-1.662-.474-2.189-.311-.528-.849-.791-1.615-.791-.767 0-1.305.263-1.616.791-.311.521-.466 1.251-.466 2.189zm3.422 0c0 .483-.036.889-.108 1.216-.067.322-.197.58-.392.774-.194.195-.474.292-.84.292-.361 0-.639-.097-.833-.292-.194-.194-.328-.452-.4-.774-.066-.327-.1-.733-.1-1.216 0-.477.034-.877.1-1.199.072-.322.206-.577.4-.766.194-.194.472-.291.833-.291.366 0 .646.097.84.291.195.189.325.444.392.766.072.322.108.722.108 1.199z" fill="#d3d3d5"/><path clip-rule="evenodd" d="m493 161.903c0-1.051.853-1.903 1.904-1.903 1.051 0 1.903.852 1.903 1.903v160.736c0 1.051-.852 1.903-1.903 1.903-1.051 0-1.904-.852-1.904-1.903z" fill="#f6f8fa" fill-rule="evenodd"/><rect fill="#a2a3ac" height="23.6952" opacity=".5" rx="1.90319" width="3.80637" x="493" y="206.637"/><rect fill="#c3c5cb" height="15.8092" opacity=".5" rx="1.90319" width="3.80637" x="493" y="167.114"/><rect fill="#cbcdd2" height="66.1924" rx="1.90319" width="3.80637" x="493" y="258.808"/><path d="m411.406 343.362c.944-.633 1.698-1.26 2.265-1.882.566-.627.849-1.21.849-1.749 0-.333-.086-.599-.258-.799-.167-.205-.439-.308-.816-.308-.389 0-.683.125-.883.375-.2.244-.311.583-.333 1.015h-.749c.039-.655.241-1.157.608-1.507.366-.355.838-.532 1.415-.532.55 0 .985.147 1.307.441s.483.71.483 1.249c0 .444-.144.896-.433 1.357-.283.455-.641.88-1.074 1.274-.427.389-.868.719-1.324.991h2.981v.624h-4.038zm4.633-.766v-.633l3.014-3.93h.816v3.905h.866v.658h-.866v1.349h-.766v-1.349zm3.114-3.639-2.315 2.981h2.315z" fill="#d3d3d5"/><path clip-rule="evenodd" d="m414 161.903c0-1.051.852-1.903 1.903-1.903 1.051 0 1.903.852 1.903 1.903v161.996c0 1.051-.852 1.903-1.903 1.903-1.051 0-1.903-.852-1.903-1.903z" fill="#f6f8fa" fill-rule="evenodd"/><path clip-rule="evenodd" d="m415.904 225.314c1.051 0 1.903 1.052 1.903 2.35v28.193c0 1.298-.852 2.35-1.903 2.35s-1.903-1.052-1.903-2.35v-28.193c0-1.298.852-2.35 1.903-2.35z" fill="#a2a3ac" fill-rule="evenodd" opacity=".5"/><path clip-rule="evenodd" d="m415.904 169.558c1.051 0 1.903.797 1.903 1.781v21.366c0 .983-.852 1.78-1.903 1.78s-1.903-.797-1.903-1.78v-21.366c0-.984.852-1.781 1.903-1.781z" fill="#c3c5cb" fill-rule="evenodd" opacity=".5"/><rect fill="#cbcdd2" height="29.267" rx="1.90319" width="3.80637" x="414.001" y="296.204"/><path d="m385.625 343.417c.944-.633 1.699-1.26 2.265-1.882.566-.627.85-1.21.85-1.748 0-.333-.087-.6-.259-.8-.166-.205-.438-.308-.816-.308-.388 0-.682.125-.882.375-.2.244-.311.583-.333 1.016h-.75c.039-.655.242-1.157.608-1.507.367-.355.838-.533 1.416-.533.549 0 .985.147 1.307.441s.483.711.483 1.249c0 .444-.144.897-.433 1.357-.283.456-.641.88-1.074 1.274-.428.389-.869.719-1.324.991h2.981v.625h-4.039zm4.725 0c.943-.633 1.698-1.26 2.265-1.882.566-.627.849-1.21.849-1.748 0-.333-.086-.6-.258-.8-.167-.205-.439-.308-.816-.308-.389 0-.683.125-.883.375-.2.244-.311.583-.333 1.016h-.749c.039-.655.241-1.157.607-1.507.367-.355.839-.533 1.416-.533.55 0 .985.147 1.307.441s.483.711.483 1.249c0 .444-.144.897-.433 1.357-.283.456-.641.88-1.074 1.274-.427.389-.869.719-1.324.991h2.981v.625h-4.038z" fill="#d3d3d5"/><path clip-rule="evenodd" d="m388 161.903c0-1.051.852-1.903 1.903-1.903 1.051 0 1.903.852 1.903 1.903v161.194c0 1.051-.852 1.903-1.903 1.903-1.051 0-1.903-.852-1.903-1.903z" fill="#f6f8fa" fill-rule="evenodd"/><rect fill="#396aee" height="25.3256" rx="1.90319" width="3.80637" x="388" y="198.682"/><rect fill="#39de7b" height="9.47241" rx="1.90319" width="3.80637" x="388" y="166.975"/><rect fill="#f97534" height="71.4828" rx="1.90319" width="3.80637" x="388" y="253.217"/><path d="m263.551 337.425v-.708h1.682v5.87h-.8v-5.162zm2.632 4.579c.944-.633 1.698-1.26 2.265-1.882.566-.627.849-1.21.849-1.748 0-.333-.086-.6-.258-.799-.167-.206-.439-.309-.816-.309-.389 0-.683.125-.883.375-.2.244-.311.583-.333 1.016h-.749c.039-.655.241-1.157.608-1.507.366-.355.838-.533 1.415-.533.55 0 .985.147 1.307.441s.483.711.483 1.249c0 .444-.144.897-.433 1.357-.283.456-.641.88-1.074 1.274-.427.389-.868.719-1.324.991h2.981v.625h-4.038z" fill="#d3d3d5"/><path clip-rule="evenodd" d="m265 187.505c0-1.051.853-1.903 1.904-1.903 1.051 0 1.903.852 1.903 1.903v134.002c0 1.051-.852 1.903-1.903 1.903-1.051 0-1.904-.852-1.904-1.903z" fill="#f6f8fa" fill-rule="evenodd"/><rect fill="#396aee" height="17.9827" rx="1.90319" width="3.80637" x="265" y="236.33"/><rect fill="#39de7b" height="11.3624" rx="1.90319" width="3.80637" x="265" y="217.793"/><rect fill="#f97534" height="58" rx="2" width="4" x="265" y="268"/><path d="m241 161.903c0-1.051.852-1.903 1.903-1.903 1.051 0 1.903.852 1.903 1.903v14.177c0 1.051-.852 1.903-1.903 1.903-1.051 0-1.903-.852-1.903-1.903z" fill="#396aee"/><path clip-rule="evenodd" d="m241 161.903c0-1.051.853-1.903 1.904-1.903 1.051 0 1.903.852 1.903 1.903v161.996c0 1.051-.852 1.903-1.903 1.903-1.051 0-1.904-.852-1.904-1.903z" fill="#f6f8fa" fill-rule="evenodd"/><rect fill="#396aee" height="38.9227" rx="1.90319" width="3.80637" x="241" y="226.916"/><rect fill="#f97534" height="45.1972" rx="1.90319" width="3.80637" x="241" y="280.433"/><path d="m239.356 338.782v-.707h1.682v5.87h-.8v-5.163zm2.757 2.19c0 .944.155 1.679.466 2.207.311.527.849.791 1.615.791s1.305-.264 1.616-.791c.316-.528.474-1.263.474-2.207 0-.932-.158-1.662-.474-2.19-.311-.527-.85-.791-1.616-.791s-1.304.264-1.615.791c-.311.522-.466 1.252-.466 2.19zm3.422 0c0 .483-.036.888-.108 1.216-.067.322-.198.58-.392.774s-.474.292-.841.292c-.361 0-.638-.098-.832-.292-.195-.194-.328-.452-.4-.774-.067-.328-.1-.733-.1-1.216 0-.477.033-.877.1-1.199.072-.322.205-.577.4-.766.194-.194.471-.291.832-.291.367 0 .647.097.841.291.194.189.325.444.392.766.072.322.108.722.108 1.199z" fill="#d3d3d5"/><path d="m212.815 340.972c0 .944.156 1.679.467 2.207.31.527.849.791 1.615.791s1.304-.264 1.615-.791c.317-.528.475-1.263.475-2.207 0-.933-.158-1.662-.475-2.19-.311-.527-.849-.791-1.615-.791s-1.305.264-1.615.791c-.311.522-.467 1.252-.467 2.19zm3.422 0c0 .483-.036.888-.108 1.216-.066.322-.197.58-.391.774s-.475.291-.841.291c-.361 0-.638-.097-.833-.291-.194-.194-.327-.452-.399-.774-.067-.328-.1-.733-.1-1.216 0-.477.033-.877.1-1.199.072-.322.205-.577.399-.766.195-.194.472-.291.833-.291.366 0 .647.097.841.291.194.189.325.444.391.766.072.322.108.722.108 1.199zm1.809-1.515c0-.289.078-.553.234-.791.155-.239.385-.428.691-.567.305-.138.669-.208 1.09-.208.422 0 .783.07 1.083.208.305.139.536.328.691.567.155.238.233.502.233.791 0 .327-.089.61-.266.849-.178.239-.447.408-.808.508.389.105.691.288.908.549.216.261.324.583.324.966 0 .555-.197.991-.591 1.308-.394.316-.919.474-1.574.474s-1.179-.158-1.573-.474c-.394-.317-.591-.753-.591-1.308 0-.383.105-.705.316-.966.216-.261.519-.444.908-.549-.361-.1-.63-.269-.808-.508s-.267-.522-.267-.849zm.75.108c0 .333.114.591.341.774.228.178.536.267.924.267.389 0 .694-.089.916-.267.228-.183.342-.441.342-.774s-.114-.589-.342-.766c-.227-.183-.533-.275-.916-.275s-.691.092-.924.275c-.227.177-.341.433-.341.766zm-.158 2.723c0 .377.127.671.383.882.255.206.602.308 1.04.308.433 0 .778-.105 1.033-.316s.383-.502.383-.874c0-.378-.133-.664-.4-.858-.266-.194-.605-.291-1.016-.291-.416 0-.757.097-1.024.291-.266.194-.399.48-.399.858z" fill="#d3d3d5"/><path clip-rule="evenodd" d="m216 162c0-.09 0-.135.002-.173.039-.991.834-1.786 1.825-1.825.038-.002.083-.002.173-.002.09 0 .135 0 .173.002.991.039 1.786.834 1.825 1.825.002.038.002.083.002.173v162c0 .09 0 .135-.002.173-.039.991-.834 1.786-1.825 1.825-.038.002-.083.002-.173.002-.09 0-.135 0-.173-.002-.991-.039-1.786-.834-1.825-1.825-.002-.038-.002-.083-.002-.173z" fill="#f6f8fa" fill-rule="evenodd"/><rect fill="#396aee" height="22.1025" rx="1.90319" width="3.80637" x="216" y="243.038"/><rect fill="#396aee" height="22.1025" rx="1.90319" width="3.80637" x="216" y="177"/><rect fill="#39de7b" height="5.94746" rx="1.90319" width="3.80637" x="216" y="208.542"/><rect fill="#f97534" height="33.7481" rx="1.90319" width="3.80637" x="216" y="291.926"/><path d="m185.832 340.972c0 .944.155 1.679.466 2.207.311.527.849.791 1.615.791s1.305-.264 1.616-.791c.316-.528.474-1.263.474-2.207 0-.933-.158-1.662-.474-2.19-.311-.527-.85-.791-1.616-.791s-1.304.264-1.615.791c-.311.522-.466 1.252-.466 2.19zm3.422 0c0 .483-.036.888-.109 1.216-.066.322-.197.58-.391.774s-.474.291-.841.291c-.361 0-.638-.097-.832-.291-.195-.194-.328-.452-.4-.774-.067-.328-.1-.733-.1-1.216 0-.477.033-.877.1-1.199.072-.322.205-.577.4-.766.194-.194.471-.291.832-.291.367 0 .647.097.841.291.194.189.325.444.391.766.073.322.109.722.109 1.199zm5.006-1.332c-.044-.35-.164-.619-.358-.808-.189-.194-.452-.291-.791-.291-.472 0-.83.183-1.074.549-.239.367-.358.947-.358 1.74l.008.309c.083-.333.275-.597.575-.791.299-.2.652-.3 1.057-.3.583 0 1.038.175 1.366.524.333.35.499.839.499 1.466 0 .366-.072.699-.216.999-.145.294-.367.53-.666.708-.294.172-.661.258-1.099.258-.839 0-1.416-.264-1.732-.791-.311-.527-.467-1.244-.467-2.148 0-1.044.167-1.827.5-2.348.339-.528.888-.791 1.649-.791.56 0 .991.158 1.29.474.306.317.486.73.541 1.241zm-2.49 2.273c0 .405.117.747.35 1.024.239.272.594.408 1.066.408.389 0 .699-.114.933-.341.233-.233.349-.558.349-.975 0-.449-.116-.791-.349-1.024-.234-.238-.556-.358-.966-.358-.233 0-.456.047-.666.142-.211.094-.383.239-.517.433-.133.189-.2.419-.2.691z" fill="#d3d3d5"/><path clip-rule="evenodd" d="m189 162c0-.09 0-.135.002-.173.039-.991.834-1.786 1.825-1.825.038-.002.083-.002.173-.002.09 0 .135 0 .173.002.991.039 1.786.834 1.825 1.825.002.038.002.083.002.173v162c0 .09 0 .135-.002.173-.039.991-.834 1.786-1.825 1.825-.038.002-.083.002-.173.002-.09 0-.135 0-.173-.002-.991-.039-1.786-.834-1.825-1.825-.002-.038-.002-.083-.002-.173z" fill="#f6f8fa" fill-rule="evenodd"/><rect fill="#396aee" height="19.0022" rx="1.90319" width="3.80637" x="189" y="253.773"/><rect fill="#39de7b" height="7.10731" rx="1.90319" width="3.80637" x="189" y="224.036"/><rect fill="#f97534" height="32.2822" rx="1.90319" width="3.80637" x="189" y="293.353"/><path d="m158.836 340.972c0 .944.155 1.679.466 2.207.311.527.849.791 1.615.791s1.305-.264 1.616-.791c.316-.528.474-1.263.474-2.207 0-.933-.158-1.662-.474-2.19-.311-.527-.85-.791-1.616-.791s-1.304.264-1.615.791c-.311.522-.466 1.252-.466 2.19zm3.422 0c0 .483-.036.888-.108 1.216-.067.322-.198.58-.392.774s-.474.291-.841.291c-.361 0-.638-.097-.832-.291-.195-.194-.328-.452-.4-.774-.067-.328-.1-.733-.1-1.216 0-.477.033-.877.1-1.199.072-.322.205-.577.4-.766.194-.194.471-.291.832-.291.367 0 .647.097.841.291.194.189.325.444.392.766.072.322.108.722.108 1.199zm1.476 1.624v-.633l3.014-3.93h.816v3.905h.866v.658h-.866v1.349h-.766v-1.349zm3.114-3.639-2.315 2.981h2.315z" fill="#d3d3d5"/><path clip-rule="evenodd" d="m162 162c0-.09 0-.135.002-.173.039-.991.834-1.786 1.825-1.825.038-.002.083-.002.173-.002.09 0 .135 0 .173.002.991.039 1.786.834 1.825 1.825.002.038.002.083.002.173v162c0 .09 0 .135-.002.173-.039.991-.834 1.786-1.825 1.825-.038.002-.083.002-.173.002-.09 0-.135 0-.173-.002-.991-.039-1.786-.834-1.825-1.825-.002-.038-.002-.083-.002-.173z" fill="#f6f8fa" fill-rule="evenodd"/><rect fill="#396aee" height="33.5216" rx="1.90319" width="3.80637" x="162" y="234.488"/><rect fill="#396aee" height="33.5216" rx="1.90319" width="3.80637" x="162" y="160"/><rect fill="#39de7b" height="11.8949" rx="1.90319" width="3.80637" x="162" y="204.751"/><rect fill="#f97534" height="50.003" rx="1.90319" width="3.80637" x="162" y="275.941"/><path d="m132.555 340.972c0 .944.156 1.679.466 2.207.311.527.85.791 1.616.791s1.304-.264 1.615-.791c.317-.528.475-1.263.475-2.207 0-.933-.158-1.662-.475-2.19-.311-.527-.849-.791-1.615-.791s-1.305.264-1.616.791c-.31.522-.466 1.252-.466 2.19zm3.422 0c0 .483-.036.888-.108 1.216-.067.322-.197.58-.391.774-.195.194-.475.291-.841.291-.361 0-.639-.097-.833-.291s-.327-.452-.4-.774c-.066-.328-.099-.733-.099-1.216 0-.477.033-.877.099-1.199.073-.322.206-.577.4-.766.194-.194.472-.291.833-.291.366 0 .646.097.841.291.194.189.324.444.391.766.072.322.108.722.108 1.199zm1.568 2.39c.944-.633 1.698-1.26 2.265-1.882.566-.627.849-1.21.849-1.749 0-.333-.086-.599-.258-.799-.167-.205-.439-.308-.816-.308-.389 0-.683.125-.883.375-.2.244-.311.583-.333 1.015h-.749c.039-.655.241-1.157.608-1.507.366-.355.838-.532 1.415-.532.55 0 .985.147 1.307.441s.483.71.483 1.249c0 .444-.144.896-.433 1.357-.283.455-.641.88-1.074 1.274-.427.389-.869.719-1.324.991h2.981v.624h-4.038z" fill="#d3d3d5"/><path clip-rule="evenodd" d="m135 162c0-.09 0-.135.002-.173.039-.991.834-1.786 1.825-1.825.038-.002.083-.002.173-.002.09 0 .135 0 .173.002.991.039 1.786.834 1.825 1.825.002.038.002.083.002.173v162c0 .09 0 .135-.002.173-.039.991-.834 1.786-1.825 1.825-.038.002-.083.002-.173.002-.09 0-.135 0-.173-.002-.991-.039-1.786-.834-1.825-1.825-.002-.038-.002-.083-.002-.173z" fill="#f6f8fa" fill-rule="evenodd"/><rect fill="#396aee" height="15.9786" rx="1.90319" width="3.80637" x="135" y="251.965"/><rect fill="#39de7b" height="15.9786" rx="1.90319" width="3.80637" x="135" y="216.281"/><rect fill="#39de7b" height="15.9786" rx="1.90319" width="3.80637" x="110" y="181"/><rect fill="#f97534" height="33.7481" rx="1.90319" width="3.80637" x="135" y="291.926"/><path d="m108.722 340.972c0 .944.155 1.679.466 2.207.311.527.85.791 1.616.791s1.304-.264 1.615-.791c.316-.528.475-1.263.475-2.207 0-.933-.159-1.662-.475-2.19-.311-.527-.849-.791-1.615-.791s-1.305.264-1.616.791c-.311.522-.466 1.252-.466 2.19zm3.422 0c0 .483-.036.888-.108 1.216-.067.322-.197.58-.391.774-.195.194-.475.291-.841.291-.361 0-.639-.097-.833-.291s-.328-.452-.4-.774c-.066-.328-.1-.733-.1-1.216 0-.477.034-.877.1-1.199.072-.322.206-.577.4-.766.194-.194.472-.291.833-.291.366 0 .646.097.841.291.194.189.324.444.391.766.072.322.108.722.108 1.199zm1.326-2.19v-.708h1.682v5.871h-.799v-5.163z" fill="#d3d3d5"/><path clip-rule="evenodd" d="m110 161.903c0-1.051.852-1.903 1.903-1.903 1.051 0 1.903.852 1.903 1.903v161.996c0 1.051-.852 1.903-1.903 1.903-1.051 0-1.903-.852-1.903-1.903z" fill="#f6f8fa" fill-rule="evenodd"/><path clip-rule="evenodd" d="m111.903 225.038c1.051 0 1.903.848 1.903 1.894v22.732c0 1.046-.852 1.894-1.903 1.894s-1.903-.848-1.903-1.894v-22.732c0-1.046.852-1.894 1.903-1.894z" fill="#396aee" fill-rule="evenodd"/><rect fill="#f97534" height="45.1973" rx="1.90319" width="3.80637" x="110" y="280.433"/><circle cx="242.568" cy="250.889" fill="#fff" r="3.56848" stroke="#ff7c00" stroke-width="1.78424"/><path d="m427.47 79.41c0 2.3933.9 3.59 2.7 3.59.953 0 1.64-.32 2.06-.96s.63-1.5167.63-2.63c0-1.1067-.21-1.98-.63-2.62s-1.107-.96-2.06-.96c-1.8 0-2.7 1.1933-2.7 3.58zm4 0c0 .7267-.09 1.2867-.27 1.68-.173.3867-.517.58-1.03.58-.52 0-.87-.1933-1.05-.58-.173-.3933-.26-.9533-.26-1.68 0-.72.087-1.2733.26-1.66.18-.3933.53-.59 1.05-.59.513 0 .857.1967 1.03.59.18.3867.27.94.27 1.66zm7.868-2.37h-3.35v1.78c.154-.18.364-.3233.63-.43.274-.1133.574-.17.9-.17.487 0 .89.1067 1.21.32.327.2067.567.4867.72.84.16.3467.24.7333.24 1.16 0 .7533-.213 1.3567-.64 1.81-.42.4533-1.023.68-1.81.68-.513 0-.96-.09-1.34-.27-.38-.1867-.676-.4433-.89-.77-.213-.3333-.33-.72-.35-1.16h1.37c.054.3.177.54.37.72.194.1733.45.26.77.26.387 0 .674-.1167.86-.35.194-.24.29-.5567.29-.95 0-.3733-.1-.6633-.3-.87s-.483-.31-.85-.31c-.266 0-.493.06-.68.18-.186.1133-.323.2667-.41.46h-1.37v-4.17h4.63zm5.796 4.49v1.47h-1.52v-1.47zm3.597-4.27v-1.32h2.54v7.06h-1.48v-5.74zm4.051 4.63c2.26-1.5667 3.39-2.8667 3.39-3.9 0-.3133-.077-.56-.23-.74-.147-.18-.38-.27-.7-.27-.66 0-1.01.45-1.05 1.35h-1.37c.04-.8333.293-1.4633.76-1.89.467-.4333 1.057-.65 1.77-.65.727 0 1.283.19 1.67.57.393.3733.59.8733.59 1.5 0 .4933-.147.99-.44 1.49-.287.4933-.653.95-1.1 1.37-.447.4133-.917.77-1.41 1.07h3.09v1.15h-4.97zm10.282-.36v1.47h-1.52v-1.47zm1.169.36c2.26-1.5667 3.39-2.8667 3.39-3.9 0-.3133-.076-.56-.23-.74-.146-.18-.38-.27-.7-.27-.66 0-1.01.45-1.05 1.35h-1.37c.04-.8333.294-1.4633.76-1.89.467-.4333 1.057-.65 1.77-.65.727 0 1.284.19 1.67.57.394.3733.59.8733.59 1.5 0 .4933-.146.99-.44 1.49-.286.4933-.653.95-1.1 1.37-.446.4133-.916.77-1.41 1.07h3.09v1.15h-4.97zm6.264-2.48c0 2.3933.9 3.59 2.7 3.59.954 0 1.64-.32 2.06-.96s.63-1.5167.63-2.63c0-1.1067-.21-1.98-.63-2.62s-1.106-.96-2.06-.96c-1.8 0-2.7 1.1933-2.7 3.58zm4 0c0 .7267-.09 1.2867-.27 1.68-.173.3867-.516.58-1.03.58-.52 0-.87-.1933-1.05-.58-.173-.3933-.26-.9533-.26-1.68 0-.72.087-1.2733.26-1.66.18-.3933.53-.59 1.05-.59.514 0 .857.1967 1.03.59.18.3867.27.94.27 1.66zm2.469-2.15v-1.32h2.54v7.06h-1.48v-5.74zm4.36.29c0-.34.094-.6567.28-.95.194-.2933.477-.53.85-.71.38-.18.837-.27 1.37-.27.534 0 .987.09 1.36.27.38.18.664.4167.85.71.194.2933.29.61.29.95 0 .3867-.093.7167-.28.99-.186.2667-.466.4667-.84.6.42.16.74.3933.96.7.227.3.34.6667.34 1.1 0 .4667-.116.87-.35 1.21-.233.3333-.553.5867-.96.76-.4.1733-.856.26-1.37.26-.513 0-.973-.0867-1.38-.26-.4-.1733-.716-.4267-.95-.76-.226-.34-.34-.7433-.34-1.21 0-.4333.11-.8.33-1.1.227-.3067.55-.54.97-.7-.373-.1333-.656-.3367-.85-.61-.186-.2733-.28-.6-.28-.98zm1.39.23c0 .32.1.5667.3.74s.47.26.81.26c.347 0 .62-.0867.82-.26s.3-.42.3-.74-.103-.5667-.31-.74c-.2-.18-.47-.27-.81-.27-.333 0-.603.09-.81.27-.2.1733-.3.42-.3.74zm-.19 3.08c0 .3533.117.6333.35.84.234.2067.55.31.95.31s.717-.1033.95-.31c.24-.2067.36-.4867.36-.84 0-.36-.123-.6333-.37-.82-.24-.1933-.553-.29-.94-.29-.38 0-.693.0967-.94.29-.24.1867-.36.46-.36.82z" fill="#777"/><path clip-rule="evenodd" d="m495.402 79.6301h1v1.0289h-1zm-1 0h-1.001v1.0289h1.001zm-.001 2.0578h-1v1.0289h1zm2.001 0h-1v1.0289h1zm1-2.0578h1.001v1.0289h-1.001zm1.001 2.0578h-1.001v1.0289h1.001z" fill="#656565" fill-rule="evenodd"/><path clip-rule="evenodd" d="m499.903 85.2891h-8.002c-.277 0-.501-.2303-.501-.5145v-8.2312c0-.2842.224-.5145.501-.5145h1.5v-1.0289h1v1.0289h3.001v-1.0289h1.001v1.0289h1.5c.276 0 .5.2303.5.5145v8.2312c0 .2842-.224.5145-.5.5145zm-.5-1.0289v-6.1735h-7.003v6.1735z" fill="#808080" fill-rule="evenodd"/><path d="m77.761 80.998-4.063 7.803v4.199h-2.414v-4.199l-4.08-7.803h2.754l2.55 5.253 2.55-5.253zm5.636 2.465c.918 0 1.7397.1927 2.465.578.7367.3853 1.3147.9463 1.734 1.683.4194.7253.629 1.581.629 2.567s-.2096 1.8417-.629 2.567c-.4193.7253-.9973 1.2863-1.734 1.683-.7253.3853-1.547.578-2.465.578s-1.7453-.1927-2.482-.578c-.7253-.3967-1.2976-.9577-1.717-1.683-.4193-.7253-.629-1.581-.629-2.567s.2097-1.8417.629-2.567c.4194-.7367.9917-1.2977 1.717-1.683.7367-.3853 1.564-.578 2.482-.578zm0 2.074c-.6686 0-1.2353.238-1.7.714-.4646.4647-.697 1.1447-.697 2.04s.2324 1.581.697 2.057c.4647.4647 1.0314.697 1.7.697.6687 0 1.2354-.2323 1.7-.697.4647-.476.697-1.1617.697-2.057s-.2323-1.5753-.697-2.04c-.4646-.476-1.0313-.714-1.7-.714zm15.5321-1.955v9.418h-2.397v-1.904c-.2494.6347-.663 1.1333-1.241 1.496-.5667.3513-1.224.527-1.972.527-1.088 0-1.955-.357-2.601-1.071s-.969-1.7113-.969-2.992v-5.474h2.38v5.202c0 .748.1926 1.3317.578 1.751.3853.408.9066.612 1.564.612.6913 0 1.241-.221 1.649-.663s.612-1.0767.612-1.904v-4.998zm4.5769 1.802c.351-.6007.816-1.071 1.394-1.411.578-.3513 1.224-.527 1.938-.527v2.567h-.697c-1.757 0-2.635.816-2.635 2.448v4.539h-2.397v-9.418h2.397zm12.049-1.921c.794 0 1.474.187 2.04.561.567.374.969.8783 1.207 1.513v-1.955h2.38v9.452c0 .8727-.175 1.6547-.527 2.346-.34.7027-.855 1.2523-1.547 1.649-.68.3967-1.507.595-2.482.595-1.36 0-2.459-.323-3.298-.969-.838-.646-1.348-1.5243-1.53-2.635h2.363c.136.476.397.8443.782 1.105.397.272.901.408 1.513.408.703 0 1.27-.2097 1.7-.629.431-.408.646-1.0313.646-1.87v-2.006c-.238.6347-.64 1.1447-1.207 1.53-.566.374-1.246.561-2.04.561-.793 0-1.507-.1927-2.142-.578-.634-.3853-1.133-.9407-1.496-1.666-.351-.7367-.527-1.598-.527-2.584s.176-1.8417.527-2.567c.363-.7367.862-1.2977 1.496-1.683.635-.3853 1.349-.578 2.142-.578zm.748 2.091c-.748 0-1.348.2437-1.802.731-.453.4873-.68 1.156-.68 2.006s.227 1.5187.68 2.006c.454.476 1.054.714 1.802.714.726 0 1.321-.2437 1.785-.731.476-.4987.714-1.1617.714-1.989 0-.8387-.238-1.5017-.714-1.989-.464-.4987-1.059-.748-1.785-.748zm11.404-2.091c.918 0 1.739.1927 2.465.578.736.3853 1.314.9463 1.734 1.683.419.7253.629 1.581.629 2.567s-.21 1.8417-.629 2.567c-.42.7253-.998 1.2863-1.734 1.683-.726.3853-1.547.578-2.465.578s-1.746-.1927-2.482-.578c-.726-.3967-1.298-.9577-1.717-1.683-.42-.7253-.629-1.581-.629-2.567s.209-1.8417.629-2.567c.419-.7367.991-1.2977 1.717-1.683.736-.3853 1.564-.578 2.482-.578zm0 2.074c-.669 0-1.236.238-1.7.714-.465.4647-.697 1.1447-.697 2.04s.232 1.581.697 2.057c.464.4647 1.031.697 1.7.697.668 0 1.235-.2323 1.7-.697.464-.476.697-1.1617.697-2.057s-.233-1.5753-.697-2.04c-.465-.476-1.032-.714-1.7-.714zm10.211-2.074c.793 0 1.473.187 2.04.561.566.374.969.8783 1.207 1.513v-1.955h2.38v9.418h-2.38v-1.972c-.238.6347-.641 1.1447-1.207 1.53-.567.374-1.247.561-2.04.561-.794 0-1.508-.1927-2.142-.578-.635-.3853-1.134-.9407-1.496-1.666-.352-.7367-.527-1.598-.527-2.584s.175-1.8417.527-2.567c.362-.7367.861-1.2977 1.496-1.683.634-.3853 1.348-.578 2.142-.578zm.748 2.091c-.748 0-1.349.2437-1.802.731-.454.4873-.68 1.156-.68 2.006s.226 1.5187.68 2.006c.453.476 1.054.714 1.802.714.725 0 1.32-.2437 1.785-.731.476-.4987.714-1.1617.714-1.989 0-.8387-.238-1.5017-.714-1.989-.465-.4987-1.06-.748-1.785-.748zm9.448-5.134v12.58h-2.397v-12.58z" fill="#2c292c"/><path clip-rule="evenodd" d="m499.348 122.129 1.315 1.314c.082.083.128.194.128.31 0 .117-.046.228-.128.31l-1.005 1.005-1.935-1.934 1.005-1.005c.082-.083.194-.129.31-.129s.228.046.31.129zm-6.317 5.697 4.073-4.073 1.934 1.935-4.072 4.072c-.056.056-.127.096-.204.115l-2.297.452.451-2.298c.02-.077.059-.147.115-.203z" fill="#b6c0c9" fill-rule="evenodd"/><path clip-rule="evenodd" d="m478.951 122.833c.237 0 .429.186.429.416v.837h-7.732v-.837c0-.23.193-.416.43-.416h1.289v-.833h.859v.833h2.577v-.833h.859v.833zm0 7.493h-6.873c-.237 0-.43-.186-.43-.416v-4.992h7.732v4.992c0 .23-.192.416-.429.416zm-1.289-4.163h-.86v.833h.86zm-.86 1.666h.86v.832h-.86zm-.858-1.666h-.86v.833h.86zm-.86 1.666h.86v.832h-.86zm-.858-1.666h-.86v.833h.86zm-.86 1.666h.86v.832h-.86z" fill="#b6c0c9" fill-rule="evenodd"/><path clip-rule="evenodd" d="m449.643 126.163c0-2.298 1.865-4.163 4.163-4.163s4.163 1.865 4.163 4.163-1.865 4.163-4.163 4.163-4.163-1.865-4.163-4.163zm4.579.417h1.665v-.833h-1.665v-1.665h-.833v1.665h-1.665v.833h1.665v1.665h.833z" fill="#b6c0c9" fill-rule="evenodd"/><g fill="#9b9fa9"><path d="m68.4831 216.416c.048.336.1654.595.352.776.1867.181.4427.272.768.272.448 0 .7867-.173 1.016-.52.2294-.347.344-.896.344-1.648 0-.144-.0026-.253-.008-.328-.0746.32-.256.576-.544.768s-.6266.288-1.016.288c-.56 0-1-.168-1.32-.504s-.48-.805-.48-1.408c0-.352.0694-.672.208-.96.1387-.288.3494-.515.632-.68.288-.171.6427-.256 1.064-.256.8107 0 1.3654.251 1.664.752.304.496.456 1.179.456 2.048 0 .992-.1546 1.749-.464 2.272-.3093.517-.8266.776-1.552.776-.5386 0-.9626-.152-1.272-.456-.304-.309-.4826-.707-.536-1.192zm2.4-2.192c0-.384-.1146-.709-.344-.976-.224-.267-.5626-.4-1.016-.4-.3733 0-.672.112-.896.336s-.336.536-.336.936c0 .427.112.755.336.984s.5307.344.92.344c.224 0 .4374-.045.64-.136.208-.091.376-.229.504-.416s.192-.411.192-.672zm5.4432-1.288h-2.896v1.888c.1333-.181.3253-.325.576-.432s.5253-.16.824-.16c.4 0 .7307.085.992.256.2667.165.4613.387.584.664.128.272.192.576.192.912 0 .581-.1627 1.056-.488 1.424s-.8027.552-1.432.552c-.5653 0-1.0267-.152-1.384-.456-.3573-.309-.5573-.723-.6-1.24h.72c.0587.331.1947.589.408.776.2187.181.4933.272.824.272.4107 0 .72-.123.928-.368s.312-.568.312-.968c0-.389-.1067-.693-.32-.912s-.5147-.328-.904-.328c-.2773 0-.52.061-.728.184-.208.117-.3653.277-.472.48h-.704v-3.192h3.568z" opacity=".5"/><path d="m64.979 187.04v-.68h1.616v5.64h-.768v-4.96zm2.6489 2.104c0 .907.1493 1.613.448 2.12.2986.507.816.76 1.552.76s1.2533-.253 1.552-.76c.304-.507.456-1.213.456-2.12 0-.896-.152-1.597-.456-2.104-.2987-.507-.816-.76-1.552-.76s-1.2534.253-1.552.76c-.2987.501-.448 1.203-.448 2.104zm3.288 0c0 .464-.0347.853-.104 1.168-.064.309-.1894.557-.376.744-.1867.187-.456.28-.808.28-.3467 0-.6134-.093-.8-.28-.1867-.187-.3147-.435-.384-.744-.064-.315-.096-.704-.096-1.168 0-.459.032-.843.096-1.152.0693-.309.1973-.555.384-.736.1866-.187.4533-.28.8-.28.352 0 .6213.093.808.28.1866.181.312.427.376.736.0693.309.104.693.104 1.152zm1.626 0c0 .907.1494 1.613.448 2.12.2987.507.816.76 1.552.76s1.2534-.253 1.552-.76c.304-.507.456-1.213.456-2.12 0-.896-.152-1.597-.456-2.104-.2986-.507-.816-.76-1.552-.76s-1.2533.253-1.552.76c-.2986.501-.448 1.203-.448 2.104zm3.288 0c0 .464-.0346.853-.104 1.168-.064.309-.1893.557-.376.744-.1866.187-.456.28-.808.28-.3466 0-.6133-.093-.8-.28-.1866-.187-.3146-.435-.384-.744-.064-.315-.096-.704-.096-1.168 0-.459.032-.843.096-1.152.0694-.309.1974-.555.384-.736.1867-.187.4534-.28.8-.28.352 0 .6214.093.808.28.1867.181.312.427.376.736.0694.309.104.693.104 1.152z" opacity=".5"/><path d="m63.9634 161.04v-.68h1.616v5.64h-.768v-4.96zm2.6489 2.104c0 .907.1493 1.613.448 2.12.2986.507.816.76 1.552.76s1.2533-.253 1.552-.76c.304-.507.456-1.213.456-2.12 0-.896-.152-1.597-.456-2.104-.2987-.507-.816-.76-1.552-.76s-1.2534.253-1.552.76c-.2987.501-.448 1.203-.448 2.104zm3.288 0c0 .464-.0347.853-.104 1.168-.064.309-.1894.557-.376.744-.1867.187-.456.28-.808.28-.3467 0-.6134-.093-.8-.28-.1867-.187-.3147-.435-.384-.744-.064-.315-.0961-.704-.0961-1.168 0-.459.0321-.843.0961-1.152.0693-.309.1973-.555.384-.736.1866-.187.4533-.28.8-.28.352 0 .6213.093.808.28.1866.181.312.427.376.736.0693.309.104.693.104 1.152zm5.426-2.208h-2.896v1.888c.1333-.181.3253-.325.576-.432s.5253-.16.824-.16c.4 0 .7307.085.992.256.2667.165.4613.387.584.664.128.272.192.576.192.912 0 .581-.1627 1.056-.488 1.424s-.8027.552-1.432.552c-.5653 0-1.0267-.152-1.384-.456-.3573-.309-.5573-.723-.6-1.24h.72c.0587.331.1947.589.408.776.2187.181.4933.272.824.272.4107 0 .72-.123.928-.368s.312-.568.312-.968c0-.389-.1067-.693-.32-.912s-.5147-.328-.904-.328c-.2773 0-.52.061-.728.184-.208.117-.3653.277-.472.48h-.704v-3.192h3.568z" opacity=".5"/><path d="m71.8314 238.105-2.136 5.112h-.768l2.168-5.04h-2.96v-.632h3.696zm4.4949.048h-2.896v1.888c.1333-.181.3253-.325.576-.432.2507-.106.5253-.16.824-.16.4 0 .7307.086.992.256.2667.166.4613.387.584.664.128.272.192.576.192.912 0 .582-.1627 1.056-.488 1.424s-.8027.552-1.432.552c-.5653 0-1.0267-.152-1.384-.456-.3573-.309-.5573-.722-.6-1.24h.72c.0587.331.1947.59.408.776.2187.182.4933.272.824.272.4107 0 .72-.122.928-.368.208-.245.312-.568.312-.968 0-.389-.1067-.693-.32-.912-.2133-.218-.5147-.328-.904-.328-.2773 0-.52.062-.728.184-.208.118-.3653.278-.472.48h-.704v-3.192h3.568z" opacity=".5"/><path d="m67.8673 292.616c.9066-.608 1.632-1.211 2.176-1.808.544-.603.816-1.163.816-1.68 0-.32-.0827-.576-.248-.768-.16-.198-.4214-.296-.784-.296-.3734 0-.656.12-.848.36-.192.234-.2987.56-.32.976h-.72c.0373-.63.232-1.112.584-1.448.352-.342.8053-.512 1.3599-.512.5281 0 .9467.141 1.2561.424.3093.282.464.682.464 1.2 0 .426-.1387.861-.416 1.304-.272.437-.616.845-1.032 1.224-.4107.373-.8347.69-1.272.952h2.864v.6h-3.88zm8.459-4.504h-2.896v1.888c.1333-.182.3253-.326.576-.432.2507-.107.5253-.16.824-.16.4 0 .7307.085.992.256.2667.165.4613.386.584.664.128.272.192.576.192.912 0 .581-.1627 1.056-.488 1.424s-.8027.552-1.432.552c-.5653 0-1.0267-.152-1.384-.456-.3573-.31-.5573-.723-.6-1.24h.72c.0587.33.1947.589.408.776.2187.181.4933.272.824.272.4107 0 .72-.123.928-.368.208-.246.312-.568.312-.968 0-.39-.1067-.694-.32-.912-.2133-.219-.5147-.328-.904-.328-.2773 0-.52.061-.728.184-.208.117-.3653.277-.472.48h-.704v-3.192h3.568z" opacity=".5"/><path d="m71.4123 263.133h-2.896v1.888c.1333-.182.3253-.326.576-.432.2506-.107.5253-.16.824-.16.4 0 .7306.085.992.256.2666.165.4613.386.584.664.128.272.192.576.192.912 0 .581-.1627 1.056-.4881 1.424-.3253.368-.8026.552-1.4319.552-.5654 0-1.0267-.152-1.384-.456-.3574-.31-.5574-.723-.6-1.24h.72c.0586.33.1946.589.408.776.2186.181.4933.272.824.272.4106 0 .72-.123.928-.368.208-.246.312-.568.312-.968 0-.39-.1067-.694-.32-.912-.2134-.219-.5147-.328-.904-.328-.2774 0-.52.061-.728.184-.208.117-.3654.277-.472.48h-.704v-3.192h3.568zm1.1296 2.208c0 .906.1494 1.613.448 2.12.2987.506.816.76 1.552.76s1.2534-.254 1.552-.76c.304-.507.456-1.214.456-2.12 0-.896-.152-1.598-.456-2.104-.2986-.507-.816-.76-1.552-.76s-1.2533.253-1.552.76c-.2986.501-.448 1.202-.448 2.104zm3.288 0c0 .464-.0346.853-.104 1.168-.064.309-.1893.557-.376.744-.1866.186-.456.28-.808.28-.3466 0-.6133-.094-.8-.28-.1866-.187-.3146-.435-.384-.744-.064-.315-.096-.704-.096-1.168 0-.459.032-.843.096-1.152.0694-.31.1974-.555.384-.736.1867-.187.4534-.28.8-.28.352 0 .6214.093.808.28.1867.181.312.426.376.736.0694.309.104.693.104 1.152z" opacity=".5"/><path d="m70.727 313.195v-.68h1.616v5.64h-.768v-4.96zm2.6489 2.104c0 .907.1494 1.614.448 2.12.2987.507.816.76 1.552.76s1.2534-.253 1.552-.76c.304-.506.456-1.213.456-2.12 0-.896-.152-1.597-.456-2.104-.2986-.506-.816-.76-1.552-.76s-1.2533.254-1.552.76c-.2986.502-.448 1.203-.448 2.104zm3.288 0c0 .464-.0346.854-.104 1.168-.064.31-.1893.558-.376.744-.1866.187-.456.28-.808.28-.3466 0-.6133-.093-.8-.28-.1866-.186-.3146-.434-.384-.744-.064-.314-.096-.704-.096-1.168 0-.458.032-.842.096-1.152.0694-.309.1974-.554.384-.736.1867-.186.4534-.28.8-.28.352 0 .6214.094.808.28.1867.182.312.427.376.736.0694.31.104.694.104 1.152z" opacity=".5"/><path d="m72.706 340.873c0 .907.1493 1.614.448 2.12.2987.507.816.76 1.552.76s1.2533-.253 1.552-.76c.304-.506.456-1.213.456-2.12 0-.896-.152-1.597-.456-2.104-.2987-.506-.816-.76-1.552-.76s-1.2533.254-1.552.76c-.2987.502-.448 1.203-.448 2.104zm3.288 0c0 .464-.0347.854-.104 1.168-.064.31-.1893.558-.376.744-.1867.187-.456.28-.808.28-.3467 0-.6133-.093-.8-.28-.1867-.186-.3147-.434-.384-.744-.064-.314-.096-.704-.096-1.168 0-.458.032-.842.096-1.152.0693-.309.1973-.554.384-.736.1867-.186.4533-.28.8-.28.352 0 .6213.094.808.28.1867.182.312.427.376.736.0693.31.104.694.104 1.152z" opacity=".5"/></g><path d="m167.189 126.384v4.616h-.606v-3.684l-1.472 3.684h-.54l-1.479-3.67v3.67h-.606v-4.616h.726l1.639 3.877 1.612-3.877zm.863-.113c0-.112.038-.2.113-.267.076-.071.176-.107.3-.107s.224.036.3.107c.075.067.113.155.113.267 0 .111-.038.202-.113.273-.076.066-.176.1-.3.1s-.224-.034-.3-.1c-.075-.071-.113-.162-.113-.273zm.713 1.072v3.657h-.606v-3.657zm2.12-.047c.413 0 .744.109.993.327.253.213.406.502.459.866h-.579c-.027-.218-.118-.396-.273-.533-.151-.142-.356-.213-.613-.213-.218 0-.389.053-.513.16-.12.102-.18.242-.18.419 0 .133.04.242.12.327.084.079.186.142.306.186.125.04.293.084.507.133.27.062.488.127.652.193.169.063.311.165.427.307.12.142.18.333.18.573 0 .297-.114.539-.34.726-.222.186-.52.28-.893.28-.435 0-.79-.105-1.066-.314-.275-.208-.437-.499-.486-.872h.586c.023.222.118.402.287.539.173.138.399.207.679.207.209 0 .371-.053.486-.16.12-.107.18-.246.18-.42 0-.142-.042-.255-.126-.339-.085-.085-.189-.149-.313-.193-.125-.045-.296-.092-.513-.14-.271-.063-.489-.125-.653-.187-.16-.062-.298-.16-.413-.293-.111-.138-.167-.322-.167-.553 0-.306.114-.553.34-.739.227-.191.535-.287.926-.287zm3.441 0c.413 0 .744.109.993.327.253.213.406.502.459.866h-.579c-.027-.218-.118-.396-.273-.533-.151-.142-.355-.213-.613-.213-.218 0-.389.053-.513.16-.12.102-.18.242-.18.419 0 .133.04.242.12.327.084.079.187.142.306.186.125.04.294.084.507.133.271.062.488.127.653.193.168.063.31.165.426.307.12.142.18.333.18.573 0 .297-.114.539-.34.726-.222.186-.52.28-.893.28-.435 0-.79-.105-1.065-.314-.276-.208-.438-.499-.487-.872h.587c.022.222.117.402.286.539.173.138.4.207.679.207.209 0 .371-.053.487-.16.12-.107.179-.246.179-.42 0-.142-.042-.255-.126-.339-.084-.085-.189-.149-.313-.193-.124-.045-.295-.092-.513-.14-.271-.063-.489-.125-.653-.187-.16-.062-.297-.16-.413-.293-.111-.138-.166-.322-.166-.553 0-.306.113-.553.339-.739.227-.191.535-.287.926-.287zm5.66 1.672c0 .129-.009.24-.027.333h-2.924c.013.418.131.731.353.94.226.208.502.313.826.313.293 0 .537-.074.732-.22.2-.151.322-.351.367-.6h.646c-.044.253-.144.48-.3.68-.151.2-.348.355-.593.466-.244.111-.519.167-.826.167-.35 0-.661-.076-.932-.227s-.484-.366-.64-.646c-.151-.284-.226-.617-.226-.999s.075-.715.226-.999c.156-.285.369-.502.64-.653s.582-.227.932-.227c.356 0 .664.076.926.227.267.151.469.353.606.606.143.253.214.533.214.839zm-.613.04c.013-.271-.031-.497-.133-.679-.103-.182-.242-.318-.42-.407-.178-.088-.371-.133-.58-.133-.333 0-.612.105-.839.313-.226.205-.349.507-.366.906zm2.904-1.712c.355 0 .655.089.899.267.249.177.422.415.52.713v-2.205h.606v4.929h-.606v-.933c-.098.298-.271.535-.52.713-.244.178-.544.267-.899.267-.324 0-.613-.076-.866-.227s-.453-.366-.599-.646c-.142-.284-.213-.617-.213-.999s.071-.715.213-.999c.146-.285.346-.502.599-.653s.542-.227.866-.227zm.173.54c-.373 0-.672.12-.899.36-.222.235-.333.561-.333.979 0 .417.111.746.333.986.227.235.526.353.899.353.24 0 .453-.056.64-.167.191-.111.34-.266.446-.466.107-.204.16-.44.16-.706 0-.267-.053-.502-.16-.706-.106-.205-.255-.36-.446-.467-.187-.111-.4-.166-.64-.166z" fill="#3a4c70"/><circle cx="155.568" cy="128.568" fill="#d12424" opacity=".1" r="3.56848"/><circle cx="155.568" cy="128.569" fill="#f97534" r="2.61688"/><path d="m209.618 126.257c.546 0 1.003.136 1.372.407.373.27.624.639.753 1.105h-.64c-.111-.284-.297-.513-.559-.686-.258-.173-.564-.26-.92-.26-.319 0-.606.076-.859.227-.253.146-.453.357-.599.633-.142.275-.213.599-.213.972 0 .382.073.713.219.993.147.275.349.488.607.639.262.147.561.22.899.22.288 0 .553-.062.792-.186.24-.125.436-.305.587-.54.155-.24.248-.52.279-.839h-1.845v-.453h2.358v.559c-.04.373-.155.711-.346 1.013s-.449.541-.773.719-.693.267-1.106.267c-.452 0-.852-.1-1.199-.3-.346-.204-.617-.486-.812-.846-.191-.364-.287-.78-.287-1.246s.096-.879.287-1.239c.195-.364.466-.648.812-.852.347-.205.744-.307 1.193-.307zm4.711 1.039c.351 0 .664.076.94.227.279.151.497.368.652.653.16.284.24.617.24.999s-.08.715-.24.999c-.155.28-.373.495-.652.646-.276.151-.589.227-.94.227-.35 0-.666-.076-.945-.227-.276-.151-.493-.366-.653-.646-.16-.284-.24-.617-.24-.999s.08-.715.24-.999c.16-.285.377-.502.653-.653.279-.151.595-.227.945-.227zm0 .533c-.217 0-.419.049-.606.147-.182.097-.331.248-.446.453-.111.2-.167.448-.167.746 0 .293.056.542.167.746.115.2.264.348.446.446.187.098.389.147.606.147.218 0 .418-.049.6-.147.186-.098.335-.246.446-.446.116-.204.173-.453.173-.746 0-.298-.057-.546-.173-.746-.111-.205-.26-.356-.446-.453-.182-.098-.382-.147-.6-.147zm4.121-.533c.355 0 .655.089.899.267.249.177.422.415.52.713v-.933h.606v3.657h-.606v-.933c-.098.298-.271.535-.52.713-.244.178-.544.267-.899.267-.324 0-.613-.076-.866-.227s-.453-.366-.6-.646c-.142-.284-.213-.617-.213-.999s.071-.715.213-.999c.147-.285.347-.502.6-.653s.542-.227.866-.227zm.173.54c-.373 0-.673.12-.899.36-.222.235-.333.561-.333.979 0 .417.111.746.333.986.226.235.526.353.899.353.24 0 .453-.056.64-.167.19-.111.339-.266.446-.466.106-.204.16-.44.16-.706 0-.267-.054-.502-.16-.706-.107-.205-.256-.36-.446-.467-.187-.111-.4-.166-.64-.166zm3.423-1.765v4.929h-.606v-4.929z" fill="#3a4c70"/><circle cx="200.553" cy="128.568" fill="#4fe6af" opacity=".2" r="3.56848"/><circle cx="200.552" cy="128.569" fill="#39de7b" r="2.61688"/><path d="m119.092 128.108v1.892h-.606v-4.696h1.492c.538 0 .94.126 1.206.38.266.248.4.59.4 1.025 0 .44-.138.784-.413 1.033-.276.244-.673.366-1.193.366zm.833-.506c.369 0 .633-.078.793-.233.164-.156.246-.375.246-.66 0-.293-.082-.515-.246-.666-.16-.155-.424-.233-.793-.233h-.833v1.792zm2.973-2.531v4.929h-.606v-4.929zm2.473 1.225c.355 0 .655.089.899.267.249.177.422.415.52.713v-.933h.606v3.657h-.606v-.933c-.098.298-.271.535-.52.713-.244.178-.544.267-.899.267-.324 0-.613-.076-.866-.227s-.453-.366-.599-.646c-.142-.284-.213-.617-.213-.999s.071-.715.213-.999c.146-.285.346-.502.599-.653s.542-.227.866-.227zm.173.54c-.373 0-.672.12-.899.36-.222.235-.333.561-.333.979 0 .417.111.746.333.986.227.235.526.353.899.353.24 0 .453-.056.64-.167.191-.111.34-.266.446-.466.107-.204.16-.44.16-.706 0-.267-.053-.502-.16-.706-.106-.205-.255-.36-.446-.467-.187-.111-.4-.166-.64-.166zm4.742-.553c.426 0 .77.138 1.032.413.262.271.393.664.393 1.179v2.125h-.606v-2.072c0-.364-.093-.644-.279-.839-.187-.195-.44-.293-.76-.293-.333 0-.599.109-.799.326-.2.213-.3.527-.3.94v1.938h-.606v-3.657h.606v.866c.093-.298.258-.526.493-.686.24-.16.515-.24.826-.24zm5.719 1.685c0 .129-.009.24-.027.333h-2.924c.014.418.131.731.353.94.227.208.502.313.826.313.293 0 .538-.074.733-.22.2-.151.322-.351.366-.6h.646c-.044.253-.144.48-.299.68-.151.2-.349.355-.593.466s-.52.167-.826.167c-.351 0-.662-.076-.933-.227s-.484-.366-.639-.646c-.151-.284-.227-.617-.227-.999s.076-.715.227-.999c.155-.285.368-.502.639-.653s.582-.227.933-.227c.355 0 .664.076.926.227.266.151.468.353.606.606.142.253.213.533.213.839zm-.613.04c.014-.271-.031-.497-.133-.679s-.242-.318-.42-.407c-.177-.088-.37-.133-.579-.133-.333 0-.613.105-.839.313-.227.205-.349.507-.367.906zm2.905-1.712c.355 0 .655.089.899.267.249.177.422.415.52.713v-2.205h.606v4.929h-.606v-.933c-.098.298-.271.535-.52.713-.244.178-.544.267-.899.267-.324 0-.613-.076-.866-.227s-.453-.366-.6-.646c-.142-.284-.213-.617-.213-.999s.071-.715.213-.999c.147-.285.347-.502.6-.653s.542-.227.866-.227zm.173.54c-.373 0-.673.12-.899.36-.222.235-.333.561-.333.979 0 .417.111.746.333.986.226.235.526.353.899.353.24 0 .453-.056.639-.167.191-.111.34-.266.447-.466.106-.204.16-.44.16-.706 0-.267-.054-.502-.16-.706-.107-.205-.256-.36-.447-.467-.186-.111-.399-.166-.639-.166z" fill="#3a4c70"/><circle cx="111.568" cy="127.568" fill="#0c80e3" opacity=".1" r="3.56848"/><circle cx="111.568" cy="127.569" fill="#396aee" r="2.61688"/></svg>