<svg enable-background="new 0 0 795 526" viewBox="0 0 795 526" xmlns="http://www.w3.org/2000/svg" xmlns:xlink="http://www.w3.org/1999/xlink"><linearGradient id="a" gradientTransform="matrix(1 0 0 -1 0 240)" gradientUnits="userSpaceOnUse" x1="289.55" x2="289.55" y1="-64.1573" y2="-140.03"><stop offset="0" stop-color="#5b6aff"/><stop offset="1" stop-color="#af70ff"/></linearGradient><clipPath id="b"><path d="m458.1 58.4h24v11.6h-24z"/></clipPath><clipPath id="c"><path d="m719.3 58.4h24v11.6h-24z"/></clipPath><clipPath id="d"><path d="m221 58.4h24.7v11.6h-24.7z"/></clipPath><path d="m769.2 526h-743.4c-14.2 0-25.8-12.7-25.8-28.4v-469.2c0-15.6 11.6-28.4 25.8-28.4h743.4c14.2 0 25.8 12.8 25.8 28.4v469.1c0 15.8-11.6 28.5-25.8 28.5z" fill="#fff"/><path d="m727.3 463.8h-82.3c-8.8 0-15.9-7.1-15.9-15.9v-134.3c0-8.8 7.1-15.9 15.9-15.9h82.3c8.8 0 15.9 7.1 15.9 15.9v134.3c0 8.8-7.1 15.9-15.9 15.9z" fill="#f7f7f7"/><path d="m562.2 295c0-21.3-17.3-38.6-38.6-38.6s-38.6 17.3-38.6 38.6v130.2c0 21.3 17.3 38.6 38.6 38.6s38.6-17.3 38.6-38.6z" fill="#f6f7f7" opacity=".9"/><path d="m484.4 378.9h77.6v45.9c0 21.4-17.4 38.8-38.8 38.8s-38.8-17.4-38.8-38.8z" fill="#fd723b"/><g fill="none" stroke-dasharray="4.67" stroke-linecap="square" stroke-width="1.1411"><path d="m168 291.6v153.2" opacity=".08" stroke="#0d0e38"/><path d="m203.9 291.6v153.2" opacity=".08" stroke="#0d0e38"/><path d="m132.1 291.6v153.2" opacity=".08" stroke="#0d0e38"/><path d="m96.6 291.6v153.2" opacity=".08" stroke="#0d0e38"/><path d="m274.8 291.6v153.2" opacity=".08" stroke="#0d0e38"/><path d="m310.7 291.6v153.2" opacity=".08" stroke="#0d0e38"/><path d="m239.8 291.6v153.2" opacity=".08" stroke="#0d0e38"/><path d="m382.5 291.6v153.2" opacity=".08" stroke="#0d0e38"/><path d="m418.4 291.6v153.2" opacity=".08" stroke="#0d0e38"/><path d="m346.6 291.6v153.2" opacity=".08" stroke="#0d0e38"/><path d="m489.3 291.6v153.2" stroke="#fff" stroke-opacity=".1308"/><path d="m454.3 291.6v153.2" opacity=".08" stroke="#0d0e38"/><path d="m525.2 291.6v153.2" stroke="#fff" stroke-opacity=".1308"/></g><path d="m483.8 340.4s17.7 19.9 33.5 13.6c10.8-4.3 18.7 1.5 25.6 2.9 7 1.4 18.7-5.8 18.7-5.8v28.2h-77.9z" fill="#8c93d9" opacity=".2"/><path d="m481.1 405.7s24.5-13.5 46.1-9.3c14.9 2.9 25-1 34.6-2 0-9.1 0-15.1 0-15.1h-80.8z" fill="#fff" opacity=".3"/><path d="m95 385.4c3.8 2.2 7.1-1.1 9.9-2 2.7-.9 5.2 0 12.5 1.1 7.4 1.1 4.5 5 11.2 2.4s10.7 3.4 10.7 3.4 3.9 9.4 11.3 2.1 12.1-2.1 16.5-.5 8.5 2.9 15.7-.2c3.6-1.3 22.7-8.8 36-7.3 16 1.7 15.3 27 29.5 27s14.7-19.1 26.5-24.7c11.9-5.6 28.8-4.3 38.9 8.2 10.1 12.4 20.4 7.1 22.3 1.6 1.8-5.6 14.1-17.8 25.9-12.9s10.6 5.4 25.8 2.2 12.3 10.9 21.1 14 20.5-2.1 35 6.8c14.4 8.9 40.8 5.7 40.8-4.1 0-9.4 0-24.1 0-24.1l-389.5-.7c-.1.1-.1 3.9-.1 7.7z" fill="#1b1e50"/><path d="m95 364.2s5.4 1.7 7.4 3.1c2 1.3 3.8 0 9.4-1.7s3.4-7.8 8.4-3.8c5 4.1 8.1-5.4 8.1-5.4s2.9-14.6 8.5-3.3c5.5 11.3 9 3.3 12.4.8s6.4-4.5 11.8.3c2.7 2 17 13.6 27 11.3 12-2.7 11.5-41.9 22.1-41.9 10.7 0 11 29.6 19.9 38.2s21.6 6.7 29.2-12.5 15.4-11.1 16.7-2.4c1.4 8.6 10.6 27.5 19.4 20 8.9-7.5 7.9-8.4 19.4-3.4 11.4 4.9 9.3-16.8 15.8-21.7 6.6-4.9 15.4 3.3 26.3-10.5s11.8-56.2 27.6 6c4.7 14 11.9 16 24.2 1.3s15.1-11.4 28.9 2c13.9 13.5 15-27.8 22.6-27.8s6.4 13.6 24.2 27.8c-.1 6 0 38.6 0 38.6l-389.5.9v-15.8h.2z" fill="url(#a)"/><path d="m61 299.4h-.9v-5.6l-1.7.6v-.8l2.4-.9h.2zm6.6-2.9c0 1-.2 1.7-.5 2.2s-.9.7-1.6.7-1.3-.2-1.6-.7-.5-1.2-.5-2.1v-1.1c0-1 .2-1.7.5-2.2s.9-.7 1.6-.7 1.3.2 1.6.7.5 1.2.5 2.1zm-.8-1.1c0-.7-.1-1.3-.3-1.6s-.5-.5-.9-.5c-.5 0-.8.2-.9.5-.2.3-.3.9-.3 1.5v1.3c0 .7.1 1.3.3 1.6s.5.5.9.5.7-.2.9-.5.3-.9.3-1.6zm6.1 1.1c0 1-.2 1.7-.5 2.2s-.9.7-1.6.7-1.3-.2-1.6-.7-.5-1.2-.5-2.1v-1.1c0-1 .2-1.7.5-2.2s.9-.7 1.6-.7 1.3.2 1.6.7.5 1.2.5 2.1zm-.9-1.1c0-.7-.1-1.3-.3-1.6s-.5-.5-.9-.5c-.5 0-.8.2-.9.5-.2.3-.3.9-.3 1.5v1.3c0 .7.1 1.3.3 1.6s.5.5.9.5.7-.2.9-.5.3-.9.3-1.6zm1.9-1.4c0-.4.2-.7.4-1 .2-.2.5-.4 1-.4.4 0 .7.2 1 .4.2.2.4.6.4 1v.3c0 .4-.2.7-.4 1-.2.2-.5.4-.9.4s-.7-.2-1-.4c-.2-.2-.4-.6-.4-1zm.6.3c0 .2.1.5.2.6.2.2.3.2.5.2s.4-.1.5-.2c.2-.2.2-.4.2-.6v-.3c0-.2-.1-.5-.2-.6-.2-.2-.3-.2-.5-.2s-.4.1-.5.2c-.2.2-.2.4-.2.6zm2.7 3.5c0-.4.2-.7.4-1 .2-.2.5-.4 1-.4.4 0 .7.2 1 .4s.4.6.4 1v.3c0 .4-.2.7-.4 1-.2.2-.5.4-.9.4s-.7-.2-1-.4c-.2-.2-.4-.6-.4-1zm.6.3c0 .2.1.5.2.6.2.2.3.2.5.2s.4-.1.5-.2c.2-.2.2-.4.2-.6v-.3c0-.2-.1-.5-.2-.6-.2-.2-.3-.2-.5-.2s-.4.1-.5.2c-.2.2-.2.4-.2.6zm-2.3.8-.5-.3 3.3-5.3.5.3z" fill="#8e99ab" opacity=".7"/><path d="m67.8 330.4-2.8 6.2h-.9l2.7-6h-3.6v-.7h4.5c.1 0 .1.5.1.5zm1.3 2.8.3-3.4h3.4v.8h-2.7l-.2 1.8c.3-.2.7-.3 1.1-.3.6 0 1.1.2 1.5.6s.5.9.5 1.6-.2 1.3-.5 1.6c-.4.4-.9.6-1.6.6-.6 0-1.1-.2-1.4-.5s-.5-.8-.6-1.3h.8c.1.4.2.7.4.9s.5.3.9.3.7-.2.9-.4.3-.6.3-1.1-.2-.8-.4-1.1c-.2-.2-.5-.4-.9-.4s-.6.1-.9.2l-.2.2zm4.8-2c0-.4.2-.7.4-1 .2-.2.5-.4 1-.4.4 0 .7.2 1 .4.2.2.4.6.4 1v.3c0 .4-.2.7-.4 1-.2.2-.5.4-.9.4s-.7-.2-1-.4c-.2-.2-.4-.6-.4-1zm.6.4c0 .2.1.5.2.6.2.2.3.2.5.2s.4-.1.5-.2.2-.4.2-.6v-.3c0-.2-.1-.5-.2-.6-.2-.2-.3-.2-.5-.2s-.4.1-.5.2c-.2.2-.2.4-.2.6zm2.7 3.4c0-.4.2-.7.4-1 .2-.2.5-.4 1-.4.4 0 .7.2 1 .4.2.2.4.6.4 1v.3c0 .4-.2.7-.4 1-.2.2-.5.4-.9.4s-.7-.2-1-.4c-.2-.2-.4-.6-.4-1zm.6.3c0 .2.1.5.2.6.2.2.3.2.5.2s.4-.1.5-.2.2-.4.2-.6v-.3c0-.2-.1-.5-.2-.6-.2-.2-.3-.2-.5-.2s-.4.1-.5.2c-.2.2-.2.4-.2.6zm-2.3.8-.5-.3 3.3-5.3.5.3z" fill="#8e99ab" opacity=".7"/><path d="m63.8 370.1.3-3.4h3.4v.8h-2.7l-.2 1.8c.3-.2.7-.3 1.1-.3.6 0 1.1.2 1.5.6s.5.9.5 1.6-.2 1.3-.5 1.6c-.4.4-.9.6-1.6.6-.6 0-1.1-.2-1.4-.5-.4-.3-.5-.8-.6-1.3h.8c.1.4.2.7.4.9s.5.3.9.3.7-.2.9-.4.3-.6.3-1.1-.2-.8-.4-1.1c-.2-.2-.5-.4-.9-.4s-.6.1-.9.2l-.2.2zm9.1.5c0 1-.2 1.7-.5 2.2s-.9.7-1.6.7-1.3-.2-1.6-.7-.5-1.2-.5-2.1v-1.1c0-1 .2-1.7.5-2.2s.9-.7 1.6-.7 1.3.2 1.6.7.5 1.2.5 2.1zm-.9-1.2c0-.7-.1-1.3-.3-1.6s-.5-.5-.9-.5c-.5 0-.8.2-.9.5-.2.3-.3.9-.3 1.5v1.3c0 .7.1 1.3.3 1.6s.5.5.9.5.7-.2.9-.5.3-.9.3-1.6zm1.9-1.4c0-.4.2-.7.4-1 .2-.2.5-.4 1-.4.4 0 .7.2 1 .4.2.2.4.6.4 1v.3c0 .4-.2.7-.4 1-.2.2-.5.4-.9.4s-.7-.2-1-.4c-.2-.2-.4-.6-.4-1zm.6.4c0 .2.1.5.2.6.2.2.3.2.5.2s.4-.1.5-.2.2-.4.2-.6v-.3c0-.2-.1-.5-.2-.6-.2-.2-.3-.2-.5-.2s-.4.1-.5.2c-.2.2-.2.4-.2.6zm2.7 3.4c0-.4.2-.7.4-1 .2-.2.5-.4 1-.4.4 0 .7.2 1 .4.2.2.4.6.4 1v.3c0 .4-.2.7-.4 1-.2.2-.5.4-.9.4s-.7-.2-1-.4c-.2-.2-.4-.6-.4-1zm.6.4c0 .2.1.5.2.6.2.2.3.2.5.2s.4-.1.5-.2.2-.4.2-.6v-.3c0-.2-.1-.5-.2-.6-.2-.2-.3-.2-.5-.2s-.4.1-.5.2c-.2.2-.2.4-.2.6zm-2.3.8-.5-.3 3.3-5.3.5.3z" fill="#8e99ab" opacity=".7"/><path d="m67.8 410.3h-4.4v-.6l2.4-2.6c.3-.4.5-.7.7-.9s.2-.5.2-.8-.1-.6-.3-.9-.5-.3-.9-.3-.8.2-1 .4-.3.5-.3 1h-.9c0-.6.2-1.1.6-1.5s.9-.5 1.6-.5c.6 0 1.1.2 1.5.5s.5.8.5 1.3c0 .6-.4 1.4-1.3 2.4l-1.8 2h3.4zm1.3-3.4.3-3.4h3.4v.8h-2.7l-.2 1.8c.3-.2.7-.3 1.1-.3.6 0 1.1.2 1.5.6s.5.9.5 1.6-.2 1.3-.5 1.6c-.4.4-.9.6-1.6.6-.6 0-1.1-.2-1.4-.5-.4-.3-.5-.8-.6-1.3h.8c.1.4.2.7.4.9s.5.3.9.3.7-.2.9-.4.3-.6.3-1.1-.2-.8-.4-1.1c-.2-.2-.5-.4-.9-.4s-.6.1-.9.2l-.2.2zm4.8-2c0-.4.2-.7.4-1 .2-.2.5-.4 1-.4.4 0 .7.2 1 .4.2.2.4.6.4 1v.3c0 .4-.2.7-.4 1-.2.2-.5.4-.9.4s-.7-.2-1-.4c-.2-.2-.4-.6-.4-1zm.6.4c0 .2.1.5.2.6.2.2.3.2.5.2s.4-.1.5-.2c.2-.2.2-.4.2-.6v-.3c0-.2-.1-.5-.2-.6-.2-.2-.3-.2-.5-.2s-.4.1-.5.2c-.2.2-.2.4-.2.6zm2.7 3.3c0-.4.2-.7.4-1 .2-.2.5-.4 1-.4.4 0 .7.2 1 .4.2.2.4.6.4 1v.3c0 .4-.2.7-.4 1-.2.2-.5.4-.9.4s-.7-.2-1-.4c-.2-.2-.4-.6-.4-1zm.6.4c0 .2.1.5.2.6.2.2.3.2.5.2s.4-.1.5-.2c.2-.2.2-.4.2-.6v-.3c0-.2-.1-.5-.2-.6-.2-.2-.3-.2-.5-.2s-.4.1-.5.2c-.2.2-.2.4-.2.6zm-2.3.8-.5-.3 3.3-5.3.5.3z" fill="#8e99ab" opacity=".7"/><path d="m80.6 444.3c0 1-.2 1.7-.5 2.2s-.9.7-1.6.7-1.3-.2-1.6-.7-.5-1.2-.5-2.1v-1.1c0-1 .2-1.7.5-2.2s.9-.7 1.6-.7 1.3.2 1.6.7.5 1.2.5 2.1zm-.9-1.2c0-.7-.1-1.3-.3-1.6s-.5-.5-.9-.5c-.5 0-.8.2-.9.5-.2.3-.3.9-.3 1.5v1.3c0 .7.1 1.3.3 1.6s.5.5.9.5.7-.2.9-.5.3-.9.3-1.6z" fill="#8e99ab" opacity=".7"/><path d="m497.7 216.6h3.7v.9h-4.7v-7.8h1zm4.4-2.1c0-.5.1-1.1.3-1.6s.5-.8.9-1 .9-.4 1.3-.4c.8 0 1.4.2 1.9.8.5.5.7 1.3.7 2.2v.1c0 .5-.1 1.1-.3 1.5-.2.5-.5.8-.9 1s-.9.4-1.4.4c-.8 0-1.4-.2-1.9-.8-.4-.5-.6-1.2-.6-2.2zm1 .1c0 .6.2 1.2.5 1.6s.7.5 1.2.5.9-.2 1.2-.6.5-.9.5-1.6c0-.6-.2-1.2-.5-1.6s-.7-.6-1.2-.6-.9.2-1.2.5c-.3.5-.5 1.1-.5 1.8zm10.7 1.5 1.1-4.5h1l-1.7 5.8h-.8l-1.4-4.4-1.4 4.4h-.8l-1.6-5.8h1l1.2 4.3 1.3-4.3h.8zm5.5 1.4c-.8 0-1.4-.2-1.9-.8-.5-.5-.7-1.2-.7-2v-.2c0-.5.1-1.1.3-1.6s.5-.8.9-1.1c.4-.2.9-.4 1.3-.4.8 0 1.3.2 1.7.7s.6 1.2.6 2.1v.4h-3.9c0 .5.2 1 .5 1.4.3.3.7.5 1.3.5.3 0 .6-.1.9-.2.2-.2.5-.3.6-.5l.6.5c-.5.9-1.2 1.2-2.2 1.2zm-.1-5.2c-.4 0-.7.2-1 .5-.2.3-.5.7-.5 1.3h2.9v-.1c0-.5-.2-.9-.4-1.2-.3-.3-.6-.5-1-.5zm4.5-.7v.7c.5-.5 1-.9 1.7-.9 1.3 0 1.9.7 1.9 2v3.8h-1v-3.8c0-.4-.1-.7-.3-.9s-.5-.3-.9-.3c-.3 0-.6.1-.9.2-.2.2-.5.4-.5.7v4.2h-1v-5.8zm4.8 2.9c0-.9.2-1.6.6-2.1s.9-.8 1.6-.8 1.3.2 1.6.7v-3.1h1v8.2h-.9l-.1-.6c-.4.5-.9.7-1.6.7s-1.3-.3-1.6-.9c-.3-.4-.6-1.1-.6-2.1zm1 .1c0 .6.2 1.2.4 1.6s.6.5 1.1.5c.6 0 1.1-.3 1.4-.9v-2.7c-.3-.5-.8-.8-1.3-.8s-.9.2-1.2.5c-.2.5-.4 1-.4 1.8zm9.4-.2v3.1h-1v-7.8h2.9c.9 0 1.5.2 2 .6.5.5.7 1 .7 1.7 0 .8-.2 1.3-.7 1.7s-1.2.6-2 .6zm0-.9h1.9c.5 0 .9-.2 1.3-.4.3-.2.5-.6.5-1.1s-.2-.9-.5-1.1c-.3-.3-.7-.4-1.2-.5h-1.9zm11.7 1.4c-.1.9-.4 1.5-.9 1.9-.5.5-1.2.7-2 .7-.9 0-1.6-.3-2.2-1-.5-.6-.9-1.6-.9-2.7v-.8c0-.7.2-1.3.4-1.9.2-.5.6-.9 1.1-1.3.5-.3 1-.5 1.6-.5.9 0 1.5.2 2 .7s.8 1.1.9 1.9h-1c-.1-.6-.3-1.1-.5-1.3-.3-.3-.7-.4-1.3-.4s-1.2.2-1.6.7-.5 1.2-.5 2v.8c0 .9.2 1.5.5 2 .4.5.9.8 1.5.8.5 0 1-.2 1.3-.4s.5-.7.6-1.3h1z" fill="#8e99ab"/><circle cx="559.1" cy="213.4" fill="#fd723b" r="2.7"/><circle cx="469.6" cy="213.4" fill="#3080e3" r="2.7"/><path d="m383.2 214.4v3.1h-1v-7.8h2.9c.9 0 1.5.2 2 .6.5.5.7 1 .7 1.7 0 .8-.2 1.3-.7 1.7s-1.2.6-2 .6zm0-.9h1.9c.5 0 .9-.2 1.3-.4.3-.2.5-.6.5-1.1s-.2-.9-.5-1.1c-.3-.3-.7-.4-1.2-.5h-1.9zm11.7 1.4c-.1.9-.4 1.5-.9 1.9-.5.5-1.2.7-2 .7-.9 0-1.6-.3-2.2-1-.5-.6-.9-1.6-.9-2.7v-.8c0-.7.2-1.3.4-1.9.2-.5.6-.9 1.1-1.3.5-.3 1-.5 1.6-.5.9 0 1.5.2 2 .7s.8 1.1.9 1.9h-1c-.1-.6-.3-1.1-.5-1.3-.3-.3-.7-.4-1.3-.4s-1.2.2-1.6.7-.5 1.2-.5 2v.8c0 .9.2 1.5.5 2 .4.5.9.8 1.5.8.5 0 1-.2 1.3-.4s.5-.7.6-1.3h1zm8.8-.3c0 .9-.2 1.6-.6 2.1s-.9.8-1.6.8-1.3-.2-1.6-.7v2.8h-1v-8h.9l.1.6c.4-.5.9-.8 1.6-.8s1.3.2 1.6.8c.4.5.6 1.3.6 2.2zm-1-.1c0-.6-.2-1.2-.4-1.6-.3-.4-.6-.5-1.2-.5s-1 .2-1.3.8v2.7c.3.5.8.8 1.3.8s.9-.2 1.1-.5c.4-.4.5-1 .5-1.7zm4.7 3c-.8 0-1.4-.2-1.9-.8-.5-.5-.7-1.2-.7-2v-.2c0-.5.1-1.1.3-1.6s.5-.8.9-1.1c.4-.2.9-.4 1.3-.4.8 0 1.3.2 1.7.7s.6 1.2.6 2.1v.4h-3.9c0 .5.2 1 .5 1.4.3.3.7.5 1.3.5.3 0 .6-.1.9-.2.2-.2.5-.3.6-.5l.6.5c-.5.9-1.3 1.2-2.2 1.2zm-.2-5.2c-.4 0-.7.2-1 .5-.2.3-.5.7-.5 1.3h2.9v-.1c0-.5-.2-.9-.4-1.2s-.5-.5-1-.5zm6.4.2c-.2 0-.3 0-.5 0-.6 0-1.1.3-1.3.9v4.2h-1v-5.8h.9v.7c.3-.5.8-.8 1.4-.8.2 0 .3 0 .5.1zm1.5 4.9v-5h-.9v-.8h.9v-.6c0-.6.2-1.1.5-1.4s.8-.5 1.4-.5c.2 0 .5 0 .7.1l-.1.8c-.2 0-.3-.1-.5-.1-.3 0-.5.1-.8.3-.2.2-.2.5-.2.8v.6h1.3v.8h-1.4v5zm3-2.9c0-.5.1-1.1.3-1.6s.5-.8.9-1 .9-.4 1.3-.4c.8 0 1.4.2 1.9.8.5.5.7 1.3.7 2.2v.1c0 .5-.1 1.1-.3 1.5-.2.5-.5.8-.9 1s-.9.4-1.4.4c-.8 0-1.4-.2-1.9-.8-.3-.5-.6-1.2-.6-2.2zm1.1.1c0 .6.2 1.2.5 1.6s.7.5 1.2.5.9-.2 1.2-.6.5-.9.5-1.6c0-.6-.2-1.2-.5-1.6s-.7-.6-1.2-.6-.9.2-1.2.5c-.4.5-.5 1.1-.5 1.8zm8.3-2.1c-.2 0-.3 0-.5 0-.6 0-1.1.3-1.3.9v4.2h-1v-5.8h.9v.7c.3-.5.8-.8 1.4-.8.2 0 .3 0 .5.1zm1.8-.9v.6c.4-.5 1-.8 1.7-.8.8 0 1.3.3 1.6.9.2-.3.5-.5.8-.7s.7-.2 1.1-.2c1.3 0 1.9.7 2 2v3.9h-1v-3.8c0-.4-.1-.7-.3-.9s-.5-.3-.9-.3-.7.1-.9.3-.4.5-.4.9v3.8h-1v-3.8c0-.9-.4-1.3-1.3-1.3-.6 0-1.1.3-1.3.9v4.2h-1v-5.8zm12.3 5.8c-.1-.1-.1-.3-.2-.6-.5.5-1 .7-1.6.7-.5 0-1-.2-1.4-.5s-.5-.7-.5-1.3.2-1.1.7-1.4 1.1-.5 2-.5h.9v-.5c0-.3-.1-.6-.3-.9-.2-.2-.5-.3-.9-.3s-.6.1-.9.2c-.2.2-.4.4-.4.6h-1c0-.3.1-.5.3-.9.2-.2.5-.5.9-.6.4-.2.7-.2 1.2-.2.7 0 1.2.2 1.6.5s.5.8.6 1.4v2.7c0 .5.1.9.2 1.3v.1h-1.1v.2zm-1.7-.7c.3 0 .6-.1.9-.2.3-.2.5-.4.6-.6v-1.2h-.8c-1.2 0-1.8.4-1.8 1.1 0 .3.1.5.3.7.3.1.5.2.8.2zm5.1-5.1v.7c.5-.5 1-.9 1.7-.9 1.3 0 1.9.7 1.9 2v3.8h-1v-3.8c0-.4-.1-.7-.3-.9s-.5-.3-.9-.3c-.3 0-.6.1-.9.2s-.5.4-.5.7v4.2h-1v-5.8zm7.4 5.1c.4 0 .6-.1.9-.3.2-.2.4-.5.5-.8h.9c0 .3-.2.6-.3.9-.2.3-.5.5-.9.7-.3.2-.7.2-1.1.2-.8 0-1.4-.2-1.9-.8-.5-.5-.7-1.3-.7-2.2v-.2c0-.5.1-1.1.3-1.5.2-.5.5-.8.9-1s.9-.4 1.4-.4c.6 0 1.2.2 1.6.5s.6.9.7 1.5h-.9c0-.4-.2-.7-.4-.9s-.5-.4-.9-.4c-.5 0-.9.2-1.2.5-.3.4-.4.9-.4 1.6v.2c0 .7.2 1.2.4 1.6.3.5.5.8 1.1.8zm5.8.8c-.8 0-1.4-.2-1.9-.8-.5-.5-.7-1.2-.7-2v-.2c0-.5.1-1.1.3-1.6s.5-.8.9-1.1c.4-.2.9-.4 1.3-.4.8 0 1.3.2 1.7.7s.6 1.2.6 2.1v.4h-3.9c0 .5.2 1 .5 1.4.3.3.7.5 1.3.5.3 0 .6-.1.9-.2.2-.2.5-.3.6-.5l.6.5c-.5.9-1.3 1.2-2.2 1.2zm-.2-5.2c-.4 0-.7.2-1 .5-.2.3-.5.7-.5 1.3h2.9v-.1c0-.5-.2-.9-.4-1.2s-.5-.5-1-.5z" fill="#8e99ab"/><path d="m64 214.1c0-.5-.2-1-.6-1.3s-1.1-.6-2.1-.9-1.9-.6-2.4-1c-1.2-.7-1.7-1.7-1.7-2.9 0-1 .4-1.9 1.3-2.6s2-1 3.3-1c.9 0 1.7.2 2.4.5s1.3.8 1.6 1.4c.4.6.6 1.3.6 2h-2.2c0-.7-.2-1.2-.6-1.6s-1-.5-1.8-.5c-.7 0-1.3.2-1.7.5s-.6.8-.6 1.3.2.9.6 1.2c.5.3 1.2.6 2.1.9 1 .3 1.8.6 2.4 1s1 .8 1.3 1.3.4 1.1.4 1.7c0 1.1-.4 1.9-1.3 2.6-.8.6-2 .9-3.3.9-.9 0-1.8-.2-2.6-.5s-1.4-.8-1.8-1.4-.6-1.3-.6-2.1h2.2c0 .7.2 1.3.7 1.7s1.2.6 2 .6 1.3-.2 1.7-.5c.6-.3.7-.8.7-1.3zm7.3.3 2-6.4h2.3l-3.8 11c-.5 1.6-1.6 2.4-3 2.4-.3 0-.6-.1-1-.2v-1.6h.4c.5 0 .9-.1 1.3-.3.3-.2.5-.5.6-1l.3-.8-3.4-9.5h2.3zm10.8.4c0-.4-.2-.7-.5-.9s-.9-.4-1.6-.5c-.7-.2-1.3-.3-1.8-.5-1.1-.5-1.6-1.3-1.6-2.3 0-.8.3-1.5 1-2s1.6-.9 2.7-.9c1.2 0 2 .3 2.7.9.7.5 1 1.3 1 2.2h-2.1c0-.4-.2-.8-.5-1-.3-.3-.7-.4-1.3-.4-.5 0-.9.1-1.2.3s-.5.5-.5.9c0 .3.2.5.4.8.3.2.9.4 1.6.5.9.2 1.5.4 2 .6s.9.5 1.1.9.3.8.3 1.3c0 .9-.4 1.6-1.1 2.1s-1.6.8-2.8.8c-.8 0-1.5-.2-2.1-.4-.6-.3-1.1-.7-1.4-1.2s-.5-1-.5-1.6h2c0 .5.2.9.5 1.2.3.2.8.4 1.4.4.5 0 1-.1 1.3-.3.9-.2 1-.5 1-.9zm6.7-9.2v2.4h1.6v1.6h-1.6v5.3c0 .4.1.6.2.8.2.2.4.2.8.2.2 0 .5 0 .8-.1v1.6c-.5.2-.9.2-1.4.2-1.6 0-2.4-.9-2.4-2.7v-5.4h-1.6v-1.6h1.6v-2.4zm7.5 12c-1.3 0-2.4-.4-3.3-1.3s-1.3-2-1.3-3.4v-.2c0-.9.2-1.8.5-2.5.4-.8.9-1.3 1.6-1.7.6-.4 1.4-.6 2.2-.6 1.3 0 2.3.4 3 1.3s1.1 2 1.1 3.5v.9h-6.1c.1.8.3 1.4.8 1.9s1 .7 1.7.7c1 0 1.8-.4 2.4-1.2l1.2 1.1c-.4.5-.9 1-1.6 1.3-.7 0-1.4.2-2.2.2zm-.2-8.2c-.5 0-1.1.2-1.4.6-.4.4-.5 1-.7 1.7h4v-.2c-.1-.7-.2-1.3-.5-1.6-.4-.3-.9-.5-1.4-.5zm7.7-1.5.1 1c.7-.8 1.6-1.2 2.7-1.2 1.3 0 2.1.5 2.6 1.5.7-.9 1.6-1.5 2.9-1.5 1 0 1.8.3 2.4.9.5.5.8 1.4.8 2.6v6.3h-2.1v-6.2c0-.6-.2-1-.4-1.3s-.7-.4-1.3-.4c-.5 0-.9.2-1.2.4s-.5.6-.6 1v6.5h-2.1v-6.3c0-1.1-.6-1.6-1.7-1.6-.9 0-1.5.3-1.8 1v6.9h-2.1v-9.6zm19.5 7.3c.4 0 .7.1.9.3s.3.5.3.9c0 .3-.1.6-.3.9-.2.2-.5.3-.9.3s-.7-.1-.9-.3-.3-.5-.3-.9c0-.3.1-.6.3-.9.2-.2.5-.3.9-.3zm13.9 2.2c-.1-.2-.2-.5-.2-.9-.7.7-1.5 1.1-2.5 1.1-.9 0-1.7-.2-2.4-.8-.6-.5-.9-1.3-.9-2 0-1 .4-1.8 1.1-2.4.8-.5 1.8-.8 3.2-.8h1.3v-.6c0-.5-.2-.9-.4-1.2-.3-.3-.7-.5-1.3-.5-.5 0-.9.2-1.2.4s-.5.5-.5.9h-2.1c0-.5.2-1 .5-1.5s.8-.8 1.4-1.1c.6-.2 1.3-.4 2-.4 1.1 0 2 .3 2.7.9.6.5 1 1.3 1 2.4v4.3c0 .9.2 1.6.4 2v.2zm-2.4-1.5c.4 0 .8-.1 1.2-.3s.6-.5.9-.9v-1.8h-1.2c-.8 0-1.4.2-1.8.4s-.6.7-.6 1.2c0 .4.2.7.4 1 .3.3.7.4 1.1.4zm10.4 0c.5 0 .9-.2 1.3-.5.3-.3.5-.7.5-1.2h2c0 .6-.2 1.2-.5 1.6-.3.5-.8.9-1.4 1.3-.6.3-1.3.5-1.9.5-1.3 0-2.4-.5-3.1-1.3-.8-.9-1.2-2-1.2-3.6v-.2c0-1.4.4-2.6 1.2-3.4.8-.9 1.8-1.3 3.1-1.3 1.1 0 2 .3 2.7 1 .7.6 1.1 1.5 1.1 2.6h-2c0-.5-.2-1-.5-1.3s-.8-.5-1.3-.5c-.7 0-1.3.2-1.6.8-.4.5-.5 1.3-.5 2.3v.3c0 1 .2 1.8.5 2.4.3.2.9.5 1.6.5zm8.2-10.3v2.4h1.6v1.6h-1.6v5.3c0 .4.1.6.2.8.2.2.4.2.8.2.2 0 .5 0 .8-.1v1.6c-.5.2-.9.2-1.4.2-1.6 0-2.4-.9-2.4-2.7v-5.4h-1.6v-1.6h1.6v-2.4zm5.6 11.8h-2.1v-9.6h2.1zm-2.3-12c0-.3.1-.6.3-.8s.5-.3.9-.3.7.1.9.3.3.5.3.8-.1.6-.3.8-.5.3-.9.3-.7-.1-.9-.3-.3-.4-.3-.8zm8 9.3 2-6.8h2.2l-3.3 9.6h-1.9l-3.3-9.6h2.2zm7.8 2.7h-2.1v-9.6h2.1zm-2.3-12c0-.3.1-.6.3-.8s.5-.3.9-.3.7.1.9.3.3.5.3.8-.1.6-.3.8-.5.3-.9.3-.7-.1-.9-.3-.3-.4-.3-.8zm7.3.2v2.4h1.6v1.6h-1.6v5.3c0 .4.1.6.2.8.2.2.4.2.8.2.2 0 .5 0 .8-.1v1.6c-.5.2-.9.2-1.4.2-1.6 0-2.4-.9-2.4-2.7v-5.4h-1.6v-1.6h1.6v-2.4zm6.7 8.8 2-6.4h2.3l-3.8 11c-.5 1.6-1.6 2.4-3 2.4-.3 0-.6-.1-1-.2v-1.6h.4c.5 0 .9-.1 1.2-.3s.5-.5.6-1l.3-.8-3.4-9.5h2.3z" fill="#121212" opacity=".9"/><path d="m60.5 233.7h-2.8l-.6 1.7h-.9l2.6-6.7h.8l2.6 6.7h-.9zm-2.5-.7h2.3l-1.2-3.1zm5.6-2.5v.6c.4-.5.9-.7 1.5-.7 1 0 1.6.6 1.6 1.8v3.3h-.9v-3.2c0-.4-.1-.6-.2-.8-.2-.2-.4-.2-.8-.2-.3 0-.5.1-.7.2-.2.2-.4.3-.5.5v3.5h-.9v-4.9zm7.5 5c-.1-.1-.1-.2-.2-.5-.4.4-.9.6-1.4.6s-.9-.2-1.2-.4c-.3-.3-.5-.6-.5-1 0-.5.2-.9.6-1.2s.9-.5 1.6-.5h1v-.4c0-.3-.1-.5-.2-.7-.2-.2-.5-.2-.8-.2s-.5.1-.8.2c-.2.2-.3.3-.3.5h-.9c0-.2.1-.5.2-.7.2-.2.4-.4.7-.5.3-.2.6-.2 1-.2.5 0 1 .2 1.3.5s.5.7.5 1.2v2.3c0 .5.1.8.2 1.1v.1zm-1.4-.7c.2 0 .5-.1.8-.2.2-.2.4-.3.5-.5v-1h-.6c-1 0-1.6.3-1.6.9 0 .2.1.5.2.6.1.2.4.2.7.2zm4.4.7h-.9v-7.1h.9zm2.9-1.3 1.2-3.8h.9l-2 5.7c-.3.9-.8 1.3-1.5 1.3h-.2l-.3-.1v-.7h.2c.3 0 .5-.1.7-.2s.3-.3.4-.6l.2-.5-1.8-4.9h.9zm4-4.9v1.2h1v.6h-1v3.1c0 .2.1.3.2.5.1.1.2.2.4.2.1 0 .2 0 .4-.1v.7c-.2.1-.5.1-.6.1-.4 0-.7-.1-.9-.3s-.3-.5-.3-.9v-3.1h-.9v-.6h.9v-1.2zm2.9 6.2h-.9v-4.9h.9zm-1-6.3c0-.2.1-.2.2-.3s.2-.2.4-.2.3.1.4.2.2.2.2.3c0 .2-.1.2-.2.3s-.2.2-.4.2-.3-.1-.4-.2-.2-.1-.2-.3zm4.3 5.6c.3 0 .5-.1.8-.3.2-.2.4-.4.4-.7h.8c0 .3-.1.5-.3.8-.2.2-.4.5-.7.6-.3.2-.6.2-.9.2-.7 0-1.3-.2-1.6-.7-.4-.5-.6-1.1-.6-1.9v-.2c0-.5.1-.9.2-1.3.2-.4.5-.7.8-.9s.7-.3 1.2-.3 1 .2 1.4.5.5.8.6 1.3h-.8c0-.3-.2-.5-.4-.8s-.5-.3-.8-.3c-.5 0-.8.2-1 .5s-.4.8-.4 1.3v.2c0 .5.1 1 .4 1.3.1.6.5.7.9.7zm5-1.8c0-.8.2-1.4.5-1.8.4-.5.9-.7 1.4-.7s1 .2 1.4.6v-2.7h.9v7.1h-.8l-.1-.5c-.3.4-.8.6-1.4.6-.5 0-1-.2-1.4-.7-.2-.5-.5-1.2-.5-1.9zm.9 0c0 .5.1 1 .3 1.3s.5.5.9.5c.5 0 .9-.2 1.2-.7v-2.3c-.2-.5-.6-.7-1.2-.7-.4 0-.7.2-.9.5-.1.3-.3.8-.3 1.4zm7.8 2.5c-.1-.1-.1-.2-.2-.5-.4.4-.9.6-1.4.6s-.9-.2-1.2-.4c-.3-.3-.5-.6-.5-1 0-.5.2-.9.6-1.2s.9-.5 1.6-.5h.9v-.4c0-.3-.1-.5-.2-.7-.2-.2-.5-.2-.8-.2s-.5.1-.8.2c-.2.2-.3.3-.3.5h-.9c0-.2.1-.5.2-.7.2-.2.4-.4.7-.5.3-.2.6-.2 1-.2.5 0 1 .2 1.3.5s.5.7.5 1.2v2.3c0 .5.1.8.2 1.1v.1zm-1.4-.7c.2 0 .5-.1.8-.2.2-.2.4-.3.5-.5v-1h-.6c-1 0-1.6.3-1.6.9 0 .2.1.5.2.6.1.2.3.2.7.2zm4.6-5.5v1.2h.9v.6h-.9v3.1c0 .2.1.3.2.5.1.1.2.2.4.2.1 0 .2 0 .4-.1v.7c-.2.1-.5.1-.6.1-.4 0-.7-.1-.9-.3s-.3-.5-.3-.9v-3.1h-.9v-.6h.9v-1.2zm4.9 6.2c-.1-.1-.1-.2-.2-.5-.4.4-.9.6-1.4.6s-.9-.2-1.2-.4c-.3-.3-.5-.6-.5-1 0-.5.2-.9.6-1.2s.9-.5 1.6-.5h.9v-.4c0-.3-.1-.5-.2-.7-.2-.2-.5-.2-.8-.2s-.5.1-.8.2c-.2.2-.3.3-.3.5h-.7c0-.2.1-.5.2-.7s.4-.4.7-.5c.3-.2.6-.2 1-.2.5 0 1 .2 1.3.5s.5.7.5 1.2v2.3c0 .5.1.8.2 1.1v.1zm-1.4-.7c.2 0 .5-.1.8-.2.2-.2.4-.3.5-.5v-1h-.6c-1 0-1.6.3-1.6.9 0 .2.1.5.2.6.2.2.5.2.7.2z" fill="#8e99ab"/><path d="m343 264.9c0-4.5 3.7-8.2 8.2-8.2h36.8c4.5 0 8.2 3.7 8.2 8.2s-3.7 8.2-8.2 8.2h-36.8c-4.6 0-8.2-3.7-8.2-8.2z" fill="#efefef"/><path d="m359.3 264.9c-.3.3-.8.5-1.2.5-.6 0-1.1-.2-1.4-.6-.4-.4-.5-.9-.5-1.6 0-.5.1-.9.3-1.2.2-.4.5-.6.8-.9.3-.2.7-.3 1.2-.3s.9.1 1.2.3.6.5.8.9.3.9.3 1.4v.5c0 1.1-.3 2-.9 2.7-.5.6-1.3.9-2.4 1h-.3v-1.1h.3c1.1 0 1.7-.5 1.8-1.6zm-.9-.5c.2 0 .4-.1.5-.2s.2-.2.4-.4v-.5c0-.5-.1-.8-.2-1-.2-.2-.4-.4-.7-.4-.2 0-.5.2-.6.4-.2.2-.2.5-.2.9s.1.6.2.9c.1.2.3.3.6.3zm3.4-.1.4-3.4h3.8v1.1h-2.7l-.2 1.4c.3-.2.6-.2 1-.2.6 0 1.1.2 1.5.6s.5.9.5 1.6c0 .4-.1.8-.3 1.2-.2.3-.5.6-.8.8s-.7.3-1.2.3c-.4 0-.8-.1-1.1-.2-.3-.2-.6-.4-.8-.7s-.3-.6-.3-1h1.3c0 .3.2.5.3.6.2.2.4.2.6.2.3 0 .5-.1.7-.3s.2-.5.2-.9-.1-.7-.3-.9-.5-.3-.8-.3-.5.1-.8.2l-.2.2zm5.1-2.1c0-.4.2-.7.4-1 .2-.2.6-.4 1-.4.5 0 .8.2 1 .4s.4.6.4 1v.3c0 .4-.2.8-.4 1s-.6.4-1 .4c-.5 0-.8-.2-1-.4s-.4-.6-.4-1zm.9.4c0 .2.1.3.2.5.1.1.2.2.4.2s.3-.1.4-.2.2-.2.2-.5v-.3c0-.2-.1-.3-.2-.5-.1-.1-.2-.2-.4-.2s-.3.1-.4.2-.2.2-.2.5zm2.4 3.4c0-.4.2-.8.4-1s.6-.4 1-.4c.5 0 .8.2 1 .4s.4.6.4 1v.3c0 .4-.2.7-.4 1-.2.2-.6.4-1 .4-.5 0-.8-.2-1.1-.4-.2-.2-.4-.6-.4-1zm.8.4c0 .2.1.3.2.5s.2.2.4.2c.4 0 .5-.2.5-.6v-.3c0-.2-.1-.3-.2-.5-.1-.1-.2-.2-.4-.2s-.3.1-.4.2-.2.2-.2.5v.2zm-2.3.7-.6-.3 3.3-5.3.6.3z" fill="#0d0e38"/><path d="m376.2 265.1c0-.8.2-1.4.5-1.8.4-.5.9-.7 1.4-.7s1 .2 1.4.6v-2.7h.9v7.1h-.8l-.1-.5c-.3.4-.8.6-1.4.6-.5 0-1-.2-1.4-.7-.3-.5-.5-1.1-.5-1.9zm.9.1c0 .5.1 1 .3 1.3s.5.5.9.5c.5 0 .9-.2 1.2-.7v-2.3c-.2-.5-.6-.7-1.2-.7-.4 0-.7.2-.9.5s-.3.8-.3 1.4zm7-1.8c-.2 0-.2 0-.4 0-.5 0-.9.2-1.1.7v3.5h-.9v-4.9h.9v.5c.3-.5.7-.7 1.2-.7.2 0 .3 0 .4.1z" fill="#b8b9cc"/><path d="m404.1 264.9c0-4.5 3.7-8.2 8.2-8.2h34.5c4.5 0 8.2 3.7 8.2 8.2s-3.7 8.2-8.2 8.2h-34.5c-4.5 0-8.2-3.7-8.2-8.2z" fill="#f8f7f7"/><path d="m414.8 268.4h-1.1v-5.4l-1.6.5v-.9l2.6-.9h.2v6.7zm6.8 0h-4.5v-.8l2.2-2.4c.3-.4.5-.6.7-.9.2-.2.2-.5.2-.7 0-.3-.1-.5-.2-.8s-.4-.3-.7-.3c-.4 0-.6.1-.9.3-.2.2-.3.5-.3.9h-1.1c0-.4.1-.8.3-1.1s.5-.5.8-.8c.3-.2.7-.2 1.2-.2.6 0 1.2.2 1.6.5s.5.8.5 1.3c0 .3-.1.7-.3 1-.2.4-.5.8-.9 1.3l-1.6 1.7h3.1v1zm1.2-3.3.4-3.4h3.6v.9h-2.8l-.2 1.6c.3-.2.6-.2 1-.2.6 0 1.1.2 1.5.6s.5.9.5 1.6-.2 1.3-.6 1.6c-.4.4-.9.6-1.6.6-.6 0-1.1-.2-1.5-.5s-.6-.8-.6-1.4h1.1c.1.3.2.5.3.8.2.2.5.2.7.2.3 0 .6-.2.8-.4s.3-.5.3-1c0-.4-.1-.7-.3-.9s-.5-.4-.9-.4c-.2 0-.4 0-.5.1s-.3.2-.5.3zm12.6 1.1c-.1.7-.3 1.3-.8 1.6s-1.1.6-1.8.6c-.5 0-1-.2-1.4-.4s-.7-.6-.9-1.1-.3-1-.3-1.6v-.6c0-.6.1-1.2.3-1.6s.5-.9.9-1.1.9-.4 1.5-.4c.7 0 1.3.2 1.8.6s.7.9.8 1.7h-1.2c-.1-.5-.2-.9-.4-1-.2-.2-.5-.3-1-.3s-.9.2-1.2.5c-.2.4-.4.9-.4 1.6v.6c0 .7.2 1.3.4 1.6.2.4.6.5 1.2.5.5 0 .8-.1 1-.3s.4-.5.5-1zm2.2-.3v2.5h-1.2v-6.7h2.6c.8 0 1.3.2 1.8.5.5.4.6.9.6 1.6 0 .6-.2 1.2-.6 1.6s-1 .5-1.8.5zm0-1h1.4c.4 0 .7-.1.9-.3s.3-.5.3-.9-.1-.6-.3-.9c-.2-.2-.5-.3-.9-.3h-1.4zm9.8-3.2v4.5c0 .7-.2 1.3-.7 1.7s-1 .6-1.8.6-1.4-.2-1.8-.6c-.5-.4-.7-.9-.7-1.7v-4.5h1.2v4.5c0 .5.1.8.3 1s.5.4 1 .4c.9 0 1.3-.5 1.3-1.4v-4.5z" fill="#34ce56"/><path d="m280.5 46.7h208.2c4 0 7.2 3.2 7.2 7.2v69.7c0 4-3.2 7.2-7.2 7.2h-208.2c-4 0-7.2-3.2-7.2-7.2v-69.6c-.1-4 3.2-7.3 7.2-7.3z" fill="#f9f9f9"/><g clip-path="url(#b)"><path d="m459.8 64.5h-1v1.9h-.8v-5h1.8c.6 0 1 .1 1.3.4s.4.6.4 1.1c0 .3-.1.6-.3.8-.2.3-.4.4-.7.5l1.1 2.1h-1zm-.9-.7h.9c.3 0 .5-.1.7-.2s.3-.3.3-.6-.1-.4-.3-.6c-.1-.1-.4-.2-.7-.3h-.9zm4.2 1.8c.1 0 .3.1.4.1.1.1.1.2.1.3s-.1.3-.1.3c-.1.1-.2.1-.4.1-.1 0-.3-.1-.4-.1-.1-.1-.1-.2-.1-.3s.1-.3.1-.3c.2-.1.2-.1.4-.1z" fill="#8e99ab" opacity=".7"/><path d="m470.4 64.7c-.4.4-.9.6-1.4.6-.6 0-1.1-.2-1.5-.6s-.6-1-.6-1.8c0-.5.1-.9.3-1.3s.4-.7.8-.9.8-.3 1.2-.3c.7 0 1.3.3 1.7.8.4.6.6 1.3.6 2.2v.3c0 1.3-.3 2.3-.9 3s-1.5 1-2.6 1v-1h.2c.7 0 1.3-.2 1.7-.5.2-.3.4-.8.5-1.5zm-1.2-.3c.3 0 .4-.1.7-.2.2-.1.4-.3.5-.6v-.4c0-.5-.1-1-.3-1.3s-.5-.5-.8-.5-.6.1-.8.4-.3.6-.3 1.1c0 .4.1.8.3 1.1.1.3.4.4.7.4zm5 2c.3 0 .4.1.5.2s.2.3.2.5-.1.3-.2.4-.3.2-.5.2-.4-.1-.5-.2-.2-.3-.2-.4c0-.2.1-.4.2-.5s.2-.2.5-.2zm6-1.7c-.4.4-.9.6-1.4.6-.6 0-1.1-.2-1.5-.6s-.6-1-.6-1.8c0-.5.1-.9.3-1.3s.4-.7.8-.9.8-.3 1.2-.3c.7 0 1.3.3 1.7.8.4.6.6 1.3.6 2.2v.3c0 1.3-.3 2.3-.9 3s-1.5 1-2.6 1h-.1v-1h.2c.7 0 1.3-.2 1.7-.5s.6-.8.6-1.5zm-1.1-.3c.3 0 .4-.1.7-.2.2-.1.4-.3.5-.6v-.4c0-.5-.1-1-.3-1.3s-.5-.5-.8-.5-.6.1-.8.4-.3.6-.3 1.1c0 .4.1.8.3 1.1.1.2.4.4.7.4z" fill="#191d23"/></g><path d="m300 68.5h21.7c5.2 0 9.4 4.2 9.4 9.4v21.7c0 5.2-4.2 9.4-9.4 9.4h-21.7c-5.2 0-9.4-4.2-9.4-9.4v-21.6c0-5.3 4.2-9.5 9.4-9.5z" fill="#3080e3"/><path d="m307.2 80.1c2.4 0 4.3 1.9 4.3 4.3s-1.9 4.3-4.3 4.3-4.3-1.9-4.3-4.3 2-4.3 4.3-4.3zm2.1 3.1c0-.4-.3-.6-.6-.6-.4 0-.6.3-.6.6 0 .4.3.6.6.6s.6-.3.6-.6zm-4.2 0c0-.4.3-.6.6-.6.4 0 .6.3.6.6 0 .4-.3.6-.6.6-.3.1-.6-.3-.6-.6zm.5 2.2c-.2.1-.2.4-.1.6.1.1.6.7 1.6.7s1.6-.7 1.7-.7c.1-.2.1-.4-.1-.6-.2-.1-.4-.1-.6.1 0 0-.3.4-1 .4-.6 0-1-.4-1-.4 0-.2-.3-.2-.5-.1z" fill="#fff"/><path d="m317.8 91.6h.1c.5 0 1-.4 1-1 0-.5-.4-1-1-1h-3.1c-.2 0-.3-.1-.3-.3.2-1.3.4-1.8.6-3.1.1-1.3-1.7-1.5-2-.3-.5 2.3-2.4 3.8-3 4.3-.1.1-.2.3-.2.4v5.4c0 .2.1.4.3.4.7.3 1.5 1 3.7 1h3.5c.5 0 1-.4 1-1 0-.5-.4-1-1-1h.1c.5 0 1-.3 1-.8.1-.6-.4-1.1-1-1.1h.1c.5 0 1-.3 1-.8.2-.6-.3-1.1-.8-1.1z" fill="#fff"/><path d="m308.6 90.2h-2.4c-.3 0-.5.2-.5.5v5.1c0 .3.2.5.5.5h2.4c.3 0 .5-.2.5-.5v-5.1c0-.2-.2-.5-.5-.5z" fill="#fff"/><path d="m353.1 96.7v4.9c0 .7-.2 1.2-.6 1.7s-1 .7-1.7.7h-.3c-.8 0-1.4-.2-1.9-.6-.4-.4-.7-1-.7-1.8v-4.9h1v4.9c0 .5.1 1 .4 1.2.3.3.7.4 1.2.4s1-.1 1.2-.4c.3-.3.4-.7.4-1.2v-4.9zm4.5 5.9c0-.3-.1-.4-.3-.6-.2-.1-.5-.3-1-.4-.4-.1-.8-.2-1.1-.4-.3-.1-.4-.3-.6-.5-.1-.2-.2-.4-.2-.7 0-.4.2-.8.6-1.1s.8-.4 1.4-.4 1.1.1 1.5.4.6.7.6 1.2h-1c0-.3-.1-.4-.3-.6s-.5-.3-.8-.3-.6.1-.8.2-.3.3-.3.6c0 .2.1.4.3.5s.5.2 1 .3c.4.1.8.3 1.1.4s.5.3.6.5.2.4.2.7c0 .5-.2.9-.6 1.1-.4.3-.9.4-1.5.4-.4 0-.8-.1-1.1-.3-.3-.1-.6-.4-.8-.6s-.3-.6-.3-.9h.9c0 .3.1.6.4.8s.5.3.9.3c.3 0 .6-.1.8-.2.3-.1.4-.3.4-.4zm4.3 1.5c-.7 0-1.3-.3-1.8-.7-.4-.5-.7-1.1-.7-1.9v-.2c0-.5.1-1 .3-1.4s.5-.8.8-1c.4-.3.8-.4 1.2-.4.7 0 1.2.3 1.7.7.4.4.6 1.1.6 2v.4h-3.6c0 .5.2 1 .4 1.3.3.3.7.5 1.1.5.3 0 .6-.1.8-.2.3-.1.4-.3.6-.5l.6.4c-.4.6-1.1 1-2 1zm-.1-4.9c-.4 0-.7.1-1 .4s-.4.6-.4 1.1h2.7v-.1c0-.4-.1-.8-.4-1.1-.2-.1-.5-.3-.9-.3zm5.9.2c-.1 0-.3-.1-.4-.1-.6 0-1 .3-1.2.8v3.8h-.9v-5.3h.9v.6c.3-.5.7-.7 1.3-.7.2 0 .3 0 .4.1zm6.5 3.2c0-.3-.1-.4-.3-.6-.2-.1-.5-.3-1-.4-.4-.1-.8-.2-1.1-.4-.3-.1-.4-.3-.6-.5-.1-.2-.2-.4-.2-.7 0-.4.2-.8.6-1.1s.8-.4 1.4-.4 1.1.1 1.5.4.6.7.6 1.2h-.9c0-.3-.1-.4-.3-.6s-.5-.3-.8-.3-.6.1-.8.2-.3.3-.3.6c0 .2.1.4.3.5s.5.2 1 .3c.4.1.8.3 1.1.4s.5.3.6.5.2.4.2.7c0 .5-.2.9-.6 1.1-.4.3-.9.4-1.5.4-.4 0-.8-.1-1.1-.3-.3-.1-.6-.4-.8-.6s-.3-.6-.3-.9h.9c0 .3.1.6.4.8s.5.3.9.3c.3 0 .6-.1.8-.2s.3-.3.3-.4zm5.4 1.3c-.1-.1-.1-.3-.1-.6-.4.4-1 .6-1.5.6s-1-.1-1.3-.4-.5-.7-.5-1.1c0-.6.2-1 .6-1.3s1-.4 1.8-.4h.9v-.4c0-.3-.1-.6-.3-.8s-.4-.3-.8-.3c-.3 0-.6.1-.8.3s-.3.4-.3.6h-1c0-.3.1-.5.3-.8s.4-.4.8-.6c.3-.1.7-.2 1.1-.2.6 0 1.1.1 1.5.4s.5.8.6 1.3v2.5c0 .5.1.9.2 1.1v.1zm-1.5-.7c.3 0 .6-.1.8-.3.3-.1.4-.3.6-.6v-1.1h-.7c-1.1 0-1.7.3-1.7 1 0 .3.1.5.3.7.1.3.4.3.7.3zm5-5.9v1.3h1v.7h-1v3.3c0 .2.1.4.1.5.1.1.3.2.4.2s.3 0 .4-.1v.8c-.3.1-.4.1-.7.1-.4 0-.7-.1-1-.4-.2-.3-.3-.6-.3-1.1v-3.3h-1v-.7h1v-1.3zm3.1 6.6h-.9v-5.3h.9zm-1.1-6.8c0-.1.1-.3.1-.4.1-.1.3-.1.4-.1s.3.1.4.1c.1.1.1.3.1.4s-.1.3-.1.4c-.1.1-.3.1-.4.1s-.3-.1-.4-.1c0 0-.1-.2-.1-.4zm5.6 5.5c0-.3-.1-.4-.3-.6-.2-.1-.5-.3-1-.4-.4-.1-.8-.2-1.1-.4-.3-.1-.4-.3-.6-.5-.1-.2-.2-.4-.2-.7 0-.4.2-.8.6-1.1s.8-.4 1.4-.4 1.1.1 1.5.4.6.7.6 1.2h-1c0-.3-.1-.4-.3-.6s-.5-.3-.8-.3-.6.1-.8.2-.3.3-.3.6c0 .2.1.4.3.5s.5.2 1 .3c.4.1.8.3 1.1.4s.5.3.6.5.2.4.2.7c0 .5-.2.9-.6 1.1-.4.3-.9.4-1.5.4-.4 0-.8-.1-1.1-.3-.3-.1-.6-.4-.8-.6-.2-.3-.3-.6-.3-.9h.9c0 .3.1.6.4.8s.5.3.9.3c.3 0 .6-.1.8-.2.3-.1.4-.3.4-.4zm2.6 1.3v-4.6h-.8v-.7h.8v-.6c0-.6.1-1 .4-1.3s.8-.4 1.3-.4c.2 0 .4 0 .6.1l-.1.8c-.1 0-.3-.1-.5-.1-.3 0-.5.1-.7.3s-.3.4-.3.8v.6h1.1v.7h-1.1v4.6h-.7zm6.4 0c-.1-.1-.1-.3-.1-.6-.4.4-1 .6-1.5.6s-1-.1-1.3-.4-.5-.7-.5-1.1c0-.6.2-1 .6-1.3s1-.4 1.8-.4h.9v-.4c0-.3-.1-.6-.3-.8s-.4-.3-.8-.3c-.3 0-.6.1-.8.3s-.3.4-.3.6h-1c0-.3.1-.5.3-.8s.4-.4.8-.6c.3-.1.7-.2 1.1-.2.6 0 1.1.1 1.5.4s.5.8.6 1.3v2.5c0 .5.1.9.2 1.1v.1zm-1.5-.7c.3 0 .6-.1.8-.3.3-.1.4-.3.6-.6v-1.1h-.7c-1.1 0-1.7.3-1.7 1 0 .3.1.5.3.7.1.3.4.3.7.3zm5.8.1c.3 0 .6-.1.8-.3.3-.2.4-.4.4-.8h.9c0 .3-.1.6-.3.9s-.4.5-.8.6c-.3.2-.6.3-1 .3-.7 0-1.3-.3-1.7-.7-.4-.5-.6-1.1-.6-2v-.1c0-.5.1-1 .3-1.4s.4-.7.8-1 .8-.3 1.3-.3c.6 0 1.1.2 1.5.5.4.4.6.8.6 1.4h-1c0-.3-.2-.6-.4-.8-.3-.3-.5-.3-.9-.3s-.8.2-1.1.5-.4.8-.4 1.5v.2c0 .6.1 1.1.4 1.4.4.2.8.4 1.2.4zm4.5-6v1.3h1v.7h-1v3.3c0 .2.1.4.1.5.1.1.3.2.4.2s.3 0 .4-.1v.8c-.3.1-.4.1-.7.1-.4 0-.7-.1-1-.4s-.3-.6-.3-1.1v-3.3h-1v-.7h1v-1.3zm3 6.6h-.9v-5.3h.9zm-.9-6.8c0-.1.1-.3.1-.4.1-.1.3-.1.4-.1.2 0 .3.1.4.1.1.1.1.3.1.4s-.1.3-.1.4c-.1.1-.3.1-.4.1-.2 0-.3-.1-.4-.1s-.1-.2-.1-.4zm2.1 4.1c0-.5.1-1 .3-1.4s.5-.8.9-1c.4-.3.8-.3 1.3-.3.7 0 1.3.3 1.8.8s.7 1.2.7 2v.1c0 .5-.1 1-.3 1.4s-.5.8-.8 1c-.4.3-.8.3-1.3.3-.7 0-1.3-.3-1.8-.8s-.7-1.1-.8-2.1zm1 .1c0 .6.1 1.1.4 1.5s.6.5 1.1.5.8-.2 1.1-.6.4-.9.4-1.5-.1-1.1-.4-1.4c-.3-.4-.6-.6-1.1-.6s-.8.2-1.1.6c-.3.3-.4.8-.4 1.5zm6-2.7v.7c.4-.5 1-.8 1.6-.8 1.1 0 1.7.6 1.7 1.9v3.6h-.9v-3.6c0-.4-.1-.7-.3-.8-.2-.2-.4-.3-.8-.3-.3 0-.6.1-.8.3-.3.1-.4.4-.5.6v3.8h-.9v-5.3z" fill="#8e99ab" opacity=".7"/><path d="m355.4 81.9c-.8.8-1.7 1.1-2.8 1.1-1.3 0-2.4-.4-3.2-1.4s-1.2-2.2-1.2-3.8c0-1 .2-1.9.6-2.7s1.1-1.5 1.8-2 1.7-.7 2.7-.7 1.9.3 2.7.8 1.4 1.2 1.8 2.2.6 2 .6 3.2v1.1c0 2.5-.6 4.6-1.9 6-1.3 1.5-3.1 2.2-5.4 2.4h-.8v-2.5h.7c2.7-.1 4.1-1.3 4.4-3.7zm-2-1.2c.5 0 .9-.1 1.3-.4s.6-.6.8-.9v-1.3c0-1-.2-1.8-.6-2.4s-1-.8-1.6-.8-1.1.3-1.5.8c-.4.6-.6 1.3-.6 2.1s.2 1.5.6 2.1c.3.6.9.8 1.6.8zm18.3-6.3-5.9 13.7h-3.2l6-12.9h-7.6v-2.5h10.9zm2.6 1.3c0-1 .3-1.7.9-2.3s1.4-.9 2.4-.9 1.8.3 2.4.9.9 1.3.9 2.4v.8c0 1-.3 1.7-.9 2.3s-1.4.9-2.4.9-1.8-.3-2.4-.9-.9-1.4-.9-2.4zm2 .8c0 .4.1.8.4 1 .3.3.6.4 1 .4s.7-.1 1-.4.3-.6.3-1v-.8c0-.4-.1-.8-.3-1-.3-.3-.6-.4-1-.4s-.7.1-1 .4-.4.6-.4 1.1zm5.4 7.8c0-1 .3-1.7 1-2.3.6-.6 1.4-.9 2.4-.9s1.8.3 2.4.9 1 1.3 1 2.4v.8c0 1-.3 1.7-.9 2.3s-1.4.9-2.4.9-1.8-.3-2.4-.9-.9-1.3-.9-2.4v-.8zm2 .8c0 .4.1.7.4 1s.6.4 1 .4c.9 0 1.3-.4 1.3-1.4v-.8c0-.4-.1-.8-.4-1s-.6-.4-1-.4-.7.1-1 .4-.4.6-.4 1zm-5.5 1.8-1.5-.8 7.5-12 1.5.8z" fill="#191d23"/><path d="m533.6 46.7h208.2c4 0 7.2 3.2 7.2 7.2v69.7c0 4-3.2 7.2-7.2 7.2h-208.2c-4 0-7.2-3.2-7.2-7.2v-69.6c-.1-4 3.2-7.3 7.2-7.3z" fill="#f9f9f9"/><g clip-path="url(#c)"><path d="m721 64.5h-1v1.9h-.9v-5h1.8c.6 0 1 .1 1.3.4s.4.6.4 1.1c0 .3-.1.6-.3.8-.2.3-.4.4-.7.5l1.1 2.1h-1zm-.9-.7h.9c.3 0 .5-.1.7-.2s.3-.3.3-.6-.1-.4-.3-.6c-.1-.1-.4-.2-.7-.3h-.9zm4.2 1.8c.1 0 .3.1.4.1.1.1.1.2.1.3s-.1.3-.1.3-.2.1-.4.1c-.1 0-.3-.1-.4-.1-.1-.1-.1-.2-.1-.3s.1-.3.1-.3c.2-.1.2-.1.4-.1z" fill="#8e99ab" opacity=".7"/><path d="m731.6 64.7c-.4.4-.9.6-1.4.6-.6 0-1.1-.2-1.5-.6s-.6-1-.6-1.8c0-.5.1-.9.3-1.3s.4-.7.8-.9.8-.3 1.2-.3c.7 0 1.3.3 1.7.8.4.6.6 1.3.6 2.2v.3c0 1.3-.3 2.3-.9 3s-1.5 1-2.6 1h-.1v-1h.2c.7 0 1.3-.2 1.7-.5.3-.3.5-.8.6-1.5zm-1.2-.3c.3 0 .4-.1.7-.2.2-.1.4-.3.5-.6v-.4c0-.5-.1-1-.3-1.3s-.5-.5-.8-.5-.6.1-.8.4-.3.6-.3 1.1c0 .4.1.8.3 1.1.1.3.3.4.7.4zm5 2c.3 0 .4.1.5.2s.2.3.2.5-.1.3-.2.4-.3.2-.5.2-.4-.1-.5-.2-.2-.3-.2-.4c0-.2.1-.4.2-.5s.2-.2.5-.2zm6-1.7c-.4.4-.9.6-1.4.6-.6 0-1.1-.2-1.5-.6s-.6-1-.6-1.8c0-.5.1-.9.3-1.3s.4-.7.8-.9.8-.3 1.2-.3c.7 0 1.3.3 1.7.8.4.6.6 1.3.6 2.2v.3c0 1.3-.3 2.3-.9 3s-1.5 1-2.6 1v-1h.2c.7 0 1.3-.2 1.7-.5.3-.3.5-.8.5-1.5zm-1.1-.3c.3 0 .4-.1.7-.2.2-.1.4-.3.5-.6v-.4c0-.5-.1-1-.3-1.3s-.5-.5-.8-.5-.6.1-.8.4-.3.6-.3 1.1c0 .4.1.8.3 1.1 0 .2.4.4.7.4z" fill="#191d23"/></g><path d="m553.2 68.5h21.8c5.2 0 9.4 4.2 9.4 9.4v21.7c0 5.2-4.2 9.4-9.4 9.4h-21.7c-5.2 0-9.4-4.2-9.4-9.4v-21.6c-.2-5.3 4.1-9.5 9.3-9.5z" fill="#fd723b"/><path d="m43.2 46.7h208.2c4 0 7.2 3.2 7.2 7.2v69.7c0 4-3.2 7.2-7.2 7.2h-208.2c-4 0-7.2-3.2-7.2-7.2v-69.6c0-4 3.2-7.3 7.2-7.3z" fill="#f9f9f9"/><g clip-path="url(#d)"><path d="m223.3 64.5h-1v1.9h-.9v-5h1.8c.6 0 1 .1 1.3.4s.4.6.4 1.1c0 .3-.1.6-.3.8-.2.3-.4.4-.7.5l1.1 2.1h-1zm-1-.7h.9c.3 0 .5-.1.7-.2s.3-.3.3-.6-.1-.4-.3-.6c-.1-.1-.4-.2-.7-.3h-.9zm4.3 1.8c.1 0 .3.1.4.1.1.1.1.2.1.3s-.1.3-.1.3-.2.1-.4.1c-.1 0-.3-.1-.4-.1-.1-.1-.1-.2-.1-.3s.1-.3.1-.3c.1-.1.2-.1.4-.1z" fill="#8e99ab" opacity=".7"/><path d="m233.8 64.7c-.4.4-.9.6-1.4.6-.6 0-1.1-.2-1.5-.6s-.6-1-.6-1.8c0-.5.1-.9.3-1.3s.4-.7.8-.9.8-.3 1.2-.3c.7 0 1.3.3 1.7.8.4.6.6 1.3.6 2.2v.3c0 1.3-.3 2.3-.9 3s-1.5 1-2.6 1h-.1v-1h.2c.7 0 1.3-.2 1.7-.5s.5-.8.6-1.5zm-1.1-.3c.3 0 .4-.1.7-.2s.4-.3.5-.6v-.4c0-.5-.1-1-.3-1.3s-.5-.5-.8-.5-.6.1-.8.4-.3.6-.3 1.1c0 .4.1.8.3 1.1.1.3.3.4.7.4zm4.9 2c.3 0 .4.1.5.2s.2.3.2.5-.1.3-.2.4-.3.2-.5.2-.4-.1-.5-.2-.2-.3-.2-.4c0-.2.1-.4.2-.5s.3-.2.5-.2zm3-2.2.4-3.6h3.9v1h-2.9l-.2 1.7c.3-.2.7-.3 1.1-.3.7 0 1.2.2 1.6.6s.6 1 .6 1.8-.2 1.3-.6 1.8-1 .6-1.7.6c-.6 0-1.2-.2-1.7-.6-.4-.4-.7-.9-.7-1.5h1.1c.1.4.2.6.4.8s.4.3.8.3.6-.1.9-.4c.2-.3.3-.6.3-1.1s-.1-.8-.3-1c-.3-.3-.6-.4-1-.4-.2 0-.4 0-.6.1-.1.1-.3.2-.5.3z" fill="#191d23"/></g><path d="m62.8 68.5h21.7c5.2 0 9.4 4.2 9.4 9.4v21.7c0 5.2-4.2 9.4-9.4 9.4h-21.7c-5.2 0-9.4-4.2-9.4-9.4v-21.6c0-5.3 4.2-9.5 9.4-9.5z" fill="#3080e3"/><path d="m84.3 85.5c.6.6.6 1.5 0 2l-.9.9-.4-.3-1.5 1.5-1-1-.3.3-.1-.1c.5.4.5 1.3 0 1.7l-.7.7c.2.3.3.6.3 1s-.2.8-.4 1.1l-3.1 3.1c-.3.3-.7.4-1.1.4s-.7-.1-1-.3c-.5.4-1.2.4-1.7-.1l-3.1-3.1c-.4-.4-.5-1.1-.1-1.7l-.5-.6c-.5-.5-.6-1.3-.3-1.8l-.4-.4-.8.7-1.5-1.5-.3.3-.9-.9c-.6-.6-.6-1.5 0-2l3.7-3.6c.6-.6 1.5-.6 2 0l1 1-.2.2 1.5 1.5-.8.7.4.4c.3-.1.5-.2.8-.2.4 0 .8.1 1.1.4l.6.6.7-.7c.5-.4 1.3-.4 1.8 0l-.1-.1.3-.3-1-1 1.5-1.5-.3-.3 1-1c.6-.6 1.5-.6 2 0zm-13.8-2-4.3 4.2 1.1 1.1 4.3-4.2zm8.5 9.4-3.1 3.1c-.2.2-.4.3-.6.3s-.4-.1-.5-.1l.4-.4c.5-.4.5-1.3 0-1.7l-3.2-3.2c-.5-.4-1.3-.4-1.8 0l-.4.3-.6-.6c-.4-.3-.4-.9-.1-1.3l.2-.2-.8-.8 2.8-2.7.8.8.2-.2c.2-.1.4-.3.6-.3s.5.1.6.3l.6.6-1.6 1.5.4.4.1.1c.5.4 1.3.4 1.8 0l.7-.7 3.3 3.2c.2.2.3.4.3.6.1.5.1.8-.1 1zm-1.7-8.3 4.3 4.2 1.1-1.1-4.3-4.2z" fill="#f5faff"/><path d="m111.8 100.7c-.8-.3-1.4-.5-1.8-.9-.4-.3-.6-.8-.6-1.3 0-.6.3-1 .7-1.4s1.1-.6 1.8-.6c.5 0 1 .1 1.3.3s.7.4.9.8c.2.3.3.7.3 1.1h-1c0-.4-.1-.8-.4-1-.3-.3-.7-.4-1.2-.4-.4 0-.8.1-1.1.3s-.4.5-.4.9c0 .3.1.6.4.8s.7.4 1.3.6 1.1.4 1.4.6.6.4.8.7.3.6.3 1c0 .6-.3 1.1-.7 1.4-.4.4-1.1.5-1.8.5-.5 0-1-.1-1.4-.3s-.8-.4-1-.8c-.3-.3-.3-.7-.3-1.1h1c0 .4.2.8.5 1 .3.3.8.4 1.3.4s.9-.1 1.1-.3c.3-.2.4-.5.4-.8s-.1-.6-.4-.8c-.3-.3-.7-.5-1.4-.7zm4.7-2.2v.6c.4-.4 1-.7 1.6-.7.8 0 1.3.3 1.5.9.2-.3.4-.4.7-.6s.6-.3 1-.3c1.2 0 1.8.6 1.8 1.8v3.6h-.9v-3.6c0-.4-.1-.7-.3-.9s-.4-.3-.9-.3c-.3 0-.6.1-.8.3-.3.2-.4.4-.4.8v3.6h-1v-3.5c0-.8-.4-1.1-1.1-1.1-.6 0-1 .3-1.2.8v3.9h-.9v-5.4zm7.7 2.7c0-.5.1-1 .3-1.4s.5-.8.9-1c.4-.3.8-.3 1.3-.3.8 0 1.3.3 1.8.8.4.5.7 1.2.7 2v.1c0 .5-.1 1-.3 1.4s-.5.8-.9 1c-.4.3-.8.3-1.3.3-.7 0-1.3-.3-1.8-.8-.4-.5-.7-1.2-.7-2.1zm1 .1c0 .6.1 1.1.4 1.5s.6.6 1.1.6c.4 0 .8-.2 1.1-.6s.4-.9.4-1.5-.1-1.1-.4-1.5-.6-.6-1.1-.6c-.4 0-.8.2-1.1.6-.3.3-.4.8-.4 1.5zm4.9-.1c0-.5.1-1 .3-1.4s.5-.8.9-1c.4-.3.8-.3 1.3-.3.8 0 1.3.3 1.8.8.4.5.7 1.2.7 2v.1c0 .5-.1 1-.3 1.4s-.5.8-.9 1c-.4.3-.8.3-1.3.3-.7 0-1.3-.3-1.8-.8s-.7-1.2-.7-2.1zm.9.1c0 .6.1 1.1.4 1.5s.6.6 1.1.6c.4 0 .8-.2 1.1-.6s.4-.9.4-1.5-.1-1.1-.4-1.5-.6-.6-1.1-.6c-.4 0-.8.2-1.1.6-.3.3-.4.8-.4 1.5zm6.3-4v1.3h1v.7h-1v3.3c0 .2.1.4.1.5.1.1.3.2.4.2s.3 0 .4-.1v.8c-.3.1-.5.1-.7.1-.4 0-.7-.1-1-.4-.2-.3-.3-.6-.3-1.1v-3.3h-1v-.7h1v-1.3zm3.1 1.9c.4-.5 1-.8 1.6-.8 1.1 0 1.7.6 1.7 1.9v3.6h-.9v-3.6c0-.4-.1-.7-.3-.9s-.4-.3-.8-.3c-.3 0-.6.1-.8.3s-.4.4-.5.6v3.8h-.9v-7.6h.9zm9.8.2c-.1 0-.3-.1-.4-.1-.6 0-1 .3-1.2.8v3.8h-.9v-5.4h.9v.6c.3-.5.7-.7 1.3-.7.2 0 .3 0 .4.1zm4.1 4c-.4.4-.9.6-1.6.6-.6 0-1-.2-1.3-.5s-.4-.8-.4-1.5v-3.5h.9v3.5c0 .8.3 1.2 1 1.2s1.1-.3 1.4-.8v-3.9h.9v5.4h-.9zm3.2-4.9v.7c.4-.5 1-.8 1.6-.8 1.1 0 1.7.6 1.7 1.9v3.6h-.9v-3.6c0-.4-.1-.7-.3-.9s-.4-.3-.8-.3c-.3 0-.6.1-.8.3s-.4.4-.5.6v3.8h-.9v-5.4h.9z" fill="#a0a0a0" opacity=".7"/><path d="m120.3 74.4-6 13.7h-3.2l6-12.9h-7.6v-2.5h10.9v1.7zm3.1 6.1.9-7.8h8.6v2.5h-6.1l-.4 3.3c.7-.4 1.5-.6 2.3-.6 1.5 0 2.6.4 3.4 1.3s1.3 2.2 1.3 3.8c0 1-.2 1.9-.6 2.7s-1 1.4-1.8 1.8-1.7.6-2.7.6-1.8-.2-2.6-.6-1.4-.9-1.9-1.6c-.4-.7-.7-1.5-.7-2.4h3c.1.6.3 1.1.6 1.5.4.4.9.5 1.5.5.7 0 1.2-.3 1.6-.8s.6-1.2.6-2.1-.2-1.5-.6-2c-.4-.4-1-.7-1.8-.7-.7 0-1.3.2-1.8.6l-.3.3zm12.5-4.8c0-1 .3-1.7.9-2.3s1.4-.9 2.4-.9 1.8.3 2.4.9.9 1.3.9 2.4v.8c0 1-.3 1.7-.9 2.3s-1.4.9-2.4.9-1.8-.3-2.4-.9-.9-1.4-.9-2.4zm2.1.8c0 .4.1.8.4 1 .3.3.6.4 1 .4s.7-.1 1-.4.3-.6.3-1v-.8c0-.4-.1-.8-.3-1-.3-.3-.6-.4-1-.4s-.7.1-1 .4-.4.6-.4 1.1zm5.3 7.8c0-1 .3-1.7 1-2.3.6-.6 1.4-.9 2.4-.9s1.8.3 2.4.9 1 1.3 1 2.4v.8c0 1-.3 1.7-.9 2.3s-1.4.9-2.4.9-1.8-.3-2.4-.9-.9-1.3-.9-2.4v-.8zm2 .8c0 .4.1.7.4 1s.6.4 1 .4c.8 0 1.3-.4 1.3-1.4v-.8c0-.4-.1-.8-.4-1-.3-.3-.6-.4-1-.4s-.7.1-1 .4-.4.6-.4 1zm-5.4 1.8-1.5-.8 7.5-12 1.5.8z" fill="#191d23"/><path d="m640.6 190.6h91c6.4 0 11.5 5.2 11.5 11.5v66c0 6.4-5.2 11.5-11.5 11.5h-91c-6.4 0-11.5-5.2-11.5-11.5v-66c0-6.3 5.2-11.5 11.5-11.5z" fill="#f7f7f7"/><path d="m656.4 206.2h1.3c6.7 0 12.2 5.5 12.2 12.2v1.3c0 6.7-5.5 12.2-12.2 12.2h-1.3c-6.7 0-12.2-5.5-12.2-12.2v-1.3c0-6.7 5.5-12.2 12.2-12.2z" fill="#3080e3"/><path d="m649 250.7v5.1c0 .7-.2 1.2-.6 1.6s-.9.6-1.6.6-1.3-.2-1.8-.6c-.4-.4-.6-1-.6-1.8h1.4c0 .4.1.7.2.9.2.2.4.3.7.3s.5-.1.6-.2c.1-.2.2-.4.2-.7v-5.1h1.5zm6.6 4.1c0 .1 0 .3-.1.5h-4.2c0 .5.2.9.4 1.1.3.2.6.4.9.4s.6-.1.8-.2c.2-.2.4-.4.4-.7h1.5c-.1.4-.2.8-.5 1.1-.2.3-.6.6-1 .7-.4.2-.8.3-1.3.3-.6 0-1-.1-1.5-.3-.4-.2-.8-.6-1-1s-.4-1-.4-1.5c0-.6.1-1.1.4-1.5.2-.4.6-.8 1-1s.9-.3 1.5-.3 1 .1 1.5.3c.4.2.7.6 1 1 .5.2.6.6.6 1.1zm-1.5-.1c0-.5-.1-.8-.4-1.1-.3-.2-.6-.4-1-.4s-.7.1-1 .4c-.3.2-.4.6-.4 1.1zm4-4.4v7.6h-1.4v-7.6zm6.8.3c.9 0 1.7.2 2.2.7.6.5 1 1.1 1.2 1.9h-1.5c-.2-.4-.4-.7-.7-.9s-.7-.3-1.2-.3c-.4 0-.7.1-1 .3s-.5.5-.7.8c-.2.4-.3.8-.3 1.3s.1.9.3 1.2c.2.4.4.6.7.8s.7.3 1 .3c.5 0 .9-.1 1.2-.3s.6-.5.7-.9h1.5c-.2.8-.6 1.4-1.2 1.9s-1.3.7-2.2.7c-.7 0-1.3-.2-1.8-.5s-.9-.8-1.2-1.3c-.3-.6-.4-1.2-.4-1.9s.1-1.4.4-1.9c.3-.6.7-1 1.2-1.3.5-.5 1.1-.6 1.8-.6zm7.9 1.5c.7 0 1.2.2 1.6.6s.6 1 .6 1.8v3.3h-1.4v-3.1c0-.5-.1-.8-.3-1-.2-.3-.6-.4-1-.4s-.7.1-1 .4c-.2.3-.4.6-.4 1.1v3h-1.4v-7.5h1.4v3c.2-.4.4-.7.7-.9s.7-.3 1.2-.3zm3.2-1.5c0-.2.1-.4.2-.6.2-.2.4-.2.6-.2s.5.1.6.2c.2.1.2.3.2.6 0 .2-.1.4-.2.6-.2.1-.4.2-.6.2s-.5-.1-.6-.2c-.1-.2-.2-.4-.2-.6zm1.6 1.6v5.7h-1.4v-5.7zm4.7-.1c.5 0 .9.1 1.3.3s.7.6.9 1 .3 1 .3 1.5c0 .6-.1 1.1-.3 1.6-.2.4-.5.8-.9 1s-.8.3-1.3.3-.9-.1-1.2-.3-.6-.5-.7-.9v1.2h-1.4v-7.5h1.4v3.1c.1-.4.4-.7.7-.9.4-.2.8-.4 1.2-.4zm-.4 1.3c-.4 0-.8.2-1.1.5s-.4.7-.4 1.2.1.9.4 1.2.6.4 1.1.4.8-.1 1.1-.4.4-.7.4-1.2-.1-.9-.4-1.2c-.3-.4-.7-.5-1.1-.5zm9.4-1.2v5.7h-1.4v-1.1c-.2.4-.4.7-.7.9s-.7.3-1.2.3c-.7 0-1.2-.2-1.6-.6s-.6-1-.6-1.8v-3.3h1.4v3.1c0 .5.1.8.3 1.1.2.2.5.4.9.4s.7-.1 1-.4.4-.6.4-1.1v-3h1.5zm2.5 4.5h2.8v1.2h-4.4v-1.1l2.6-3.3h-2.6v-1.2h4.2v1.1zm6.3-4.6c.6 0 1 .1 1.5.3.4.2.8.6 1 1 .3.4.4 1 .4 1.5 0 .6-.1 1.1-.4 1.5s-.6.8-1 1-.9.3-1.5.3-1.1-.1-1.5-.3-.8-.6-1-1c-.3-.4-.4-1-.4-1.5 0-.6.1-1.1.4-1.5s.6-.8 1-1c.5-.1 1-.3 1.5-.3zm0 1.3c-.4 0-.7.1-1 .4s-.4.7-.4 1.2.1 1 .4 1.2c.3.3.6.4 1 .4s.7-.1 1-.4.4-.7.4-1.2-.1-1-.4-1.2c-.2-.3-.6-.4-1-.4z" fill="#191d23"/><path d="m704.1 219.1c0 .5-.1 1-.3 1.4s-.5.7-1 .9c-.4.2-.9.3-1.5.3h-1.8v-5.4h1.8c.6 0 1.1.1 1.5.3s.8.5 1 .9c.2.5.3 1 .3 1.6zm-2.9 1.9c.7 0 1.2-.2 1.5-.5s.5-.8.5-1.4-.2-1.1-.5-1.4-.8-.5-1.5-.5h-.9v3.9h.9zm5-3.9v1.6h2v.7h-2v1.7h2.2v.7h-3.1v-5.4h3.1v.7zm7 3.2c0 .3-.1.5-.2.7s-.3.4-.6.5-.6.2-1 .2-.7-.1-1-.2-.5-.3-.7-.6c-.2-.2-.3-.5-.3-.8h.9c0 .2.1.4.3.6s.4.3.7.3.5-.1.6-.2.2-.3.2-.6c0-.2-.1-.4-.2-.5s-.2-.2-.4-.3-.4-.2-.7-.2c-.3-.1-.6-.2-.8-.3s-.4-.3-.5-.5-.2-.5-.2-.8.1-.5.2-.8c.1-.2.3-.4.6-.5s.6-.2.9-.2c.6 0 1 .1 1.3.4s.5.6.6 1h-.9c0-.2-.1-.4-.3-.5s-.4-.2-.6-.2-.4.1-.6.2c-.1.1-.2.3-.2.5s.1.3.2.5c.1.1.2.2.4.3s.4.1.6.2c.3.1.6.2.8.3s.4.3.6.5c.3.4.3.7.3 1zm2.1-3.9v5.4h-.9v-5.4zm3.9-.1c.6 0 1.2.2 1.6.5s.7.8.9 1.3h-.9c-.1-.3-.3-.5-.6-.7s-.6-.3-1-.3c-.3 0-.6.1-.9.2-.3.2-.5.4-.6.7s-.2.6-.2 1 .1.8.2 1.1c.2.3.4.5.6.7.3.2.6.2 1 .2.5 0 .8-.1 1.2-.4.3-.3.5-.7.6-1.2h-2v-.6h2.7v.8c-.1.4-.2.8-.4 1.1s-.5.6-.9.8-.8.3-1.3.3-1-.1-1.4-.4c-.4-.2-.7-.6-.9-1s-.3-.9-.3-1.4.1-1 .3-1.4.5-.7.9-1c.4-.2.9-.3 1.4-.3zm8.2 5.5h-.9l-2.6-4v4h-.9v-5.4h.9l2.6 4v-4h.9z" fill="#191d23" opacity=".5"/><path d="m653.3 219.5c-.2.2-.6.3-.8.3-.4 0-.8-.2-1-.4-.3-.3-.4-.7-.4-1.2 0-.3.1-.6.2-.8.1-.3.3-.4.6-.6.2-.2.5-.2.8-.2s.6.1.8.2c.2.2.4.4.6.7.1.3.2.6.2 1v.3c0 .8-.2 1.4-.6 1.9-.4.4-.9.7-1.7.7h-.2v-.8h.2c.8 0 1.3-.4 1.3-1.1zm-.6-.4c.2 0 .3-.1.4-.1.1-.1.2-.2.3-.3v-.4c0-.3-.1-.6-.2-.7-.1-.2-.3-.3-.5-.3s-.3.1-.4.3-.2.4-.2.7.1.4.2.6c0 .2.2.2.4.2zm2.4 0 .3-2.4h2.6v.8h-1.9l-.1 1c.2-.1.4-.2.7-.2.4 0 .8.2 1 .4.3.3.4.7.4 1.2 0 .3-.1.6-.2.8s-.3.4-.6.6c-.2.1-.5.2-.8.2s-.6-.1-.8-.2-.4-.3-.6-.5-.2-.4-.2-.7h.9c0 .2.1.3.2.4s.3.2.4.2c.2 0 .4-.1.5-.2.1-.2.2-.4.2-.7s-.1-.5-.2-.6c-.1-.2-.3-.2-.6-.2s-.4.1-.6.2l-.1.1zm3.6-1.5c0-.3.1-.5.3-.7s.4-.3.7-.3.6.1.7.3c.2.2.3.4.3.7v.2c0 .3-.1.6-.3.7-.2.2-.4.3-.7.3s-.6-.1-.7-.3c-.2-.2-.3-.4-.3-.7zm.6.3c0 .1.1.2.1.3.1.1.2.1.3.1s.2-.1.3-.1c.1-.1.1-.2.1-.3v-.2c0-.1-.1-.2-.1-.3-.1-.1-.2-.1-.3-.1s-.2.1-.3.1c-.1.1-.1.2-.1.3zm1.7 2.3c0-.3.1-.6.3-.7.2-.2.4-.3.7-.3s.6.1.7.3c.2.2.3.4.3.7v.2c0 .3-.1.5-.3.7s-.4.3-.7.3-.6-.1-.8-.3-.3-.4-.3-.7zm.6.3c0 .1.1.2.1.3.1.1.2.1.3.1.3 0 .4-.2.4-.4v-.2c0-.1-.1-.2-.1-.3-.1-.1-.2-.1-.3-.1s-.2.1-.3.1c-.1.1-.1.2-.1.3zm-1.7.6-.4-.2 2.3-3.7.4.2z" fill="#fff"/><path d="m656.4 305.7h1.3c6.7 0 12.2 5.5 12.2 12.2v1.3c0 6.7-5.5 12.2-12.2 12.2h-1.3c-6.7 0-12.2-5.5-12.2-12.2v-1.3c0-6.7 5.5-12.2 12.2-12.2z" fill="#fd723b"/><path d="m653.3 319c-.2.2-.6.3-.8.3-.4 0-.8-.2-1-.4-.3-.3-.4-.7-.4-1.2 0-.3.1-.6.2-.8.1-.3.3-.4.6-.6.2-.2.5-.2.8-.2s.6.1.8.2c.2.2.4.4.6.7.1.3.2.6.2 1v.3c0 .8-.2 1.4-.6 1.9-.4.4-.9.7-1.7.7h-.2v-.8h.2c.8 0 1.3-.4 1.3-1.1zm-.6-.4c.2 0 .3-.1.4-.1.1-.1.2-.2.3-.3v-.4c0-.3-.1-.6-.2-.7s-.3-.3-.5-.3-.3.1-.4.3-.2.4-.2.7.1.4.2.6c0 .2.2.2.4.2zm2.4 0 .3-2.4h2.6v.8h-1.9l-.1 1c.2-.1.4-.2.7-.2.4 0 .8.2 1 .4.3.3.4.7.4 1.2 0 .3-.1.6-.2.8s-.3.4-.6.6c-.2.1-.5.2-.8.2s-.6-.1-.8-.2-.4-.3-.6-.5-.2-.4-.2-.7h.9c0 .2.1.3.2.4s.3.2.4.2c.2 0 .4-.1.5-.2.1-.2.2-.4.2-.7s-.1-.5-.2-.6c-.1-.2-.3-.2-.6-.2s-.4.1-.6.2l-.1.1zm3.6-1.5c0-.3.1-.5.3-.7s.4-.3.7-.3.6.1.7.3c.2.2.3.4.3.7v.2c0 .3-.1.6-.3.7-.2.2-.4.3-.7.3s-.6-.1-.7-.3c-.2-.2-.3-.4-.3-.7zm.6.3c0 .1.1.2.1.3.1.1.2.1.3.1s.2-.1.3-.1c.1-.1.1-.2.1-.3v-.2c0-.1-.1-.2-.1-.3-.1-.1-.2-.1-.3-.1s-.2.1-.3.1-.1.2-.1.3zm1.7 2.3c0-.3.1-.6.3-.7.2-.2.4-.3.7-.3s.6.1.7.3c.2.2.3.4.3.7v.2c0 .3-.1.5-.3.7s-.4.3-.7.3-.6-.1-.8-.3-.3-.4-.3-.7zm.6.3c0 .1.1.2.1.3.1.1.2.1.3.1.3 0 .4-.2.4-.4v-.2c0-.1-.1-.2-.1-.3-.1-.1-.2-.1-.3-.1s-.2.1-.3.1c-.1.1-.1.2-.1.3zm-1.7.5-.4-.2 2.3-3.7.4.2z" fill="#fff"/><path d="m607.9 82.1c-.7.7-1.7 1-2.6 1-1.4 0-2.4-.5-3.1-1.4-.9-.9-1.2-2.1-1.2-3.6 0-1 .2-1.9.7-2.6.3-.9 1-1.4 1.7-1.9s1.5-.7 2.6-.7c1 0 1.9.2 2.6.7s1.4 1.2 1.7 2.1.7 1.9.7 3.1v1c0 2.4-.7 4.3-1.9 5.8-1.2 1.4-2.9 2.1-5.2 2.2h-.7v-2.4h.7c2.5.1 3.9-1.1 4-3.3zm-1.8-1.2c.5 0 .9-.2 1.2-.3s.5-.5.9-.9v-1.2c0-1-.2-1.7-.5-2.2s-.9-.9-1.5-.9c-.5 0-1 .3-1.4.9-.3.5-.5 1.2-.5 2.1s.2 1.4.5 1.9c.1.4.6.6 1.3.6zm7.3-.2.9-7.4h8.2v2.4h-5.8l-.3 3.1c.7-.3 1.4-.5 2.2-.5 1.4 0 2.4.5 3.3 1.4s1.2 2.1 1.2 3.6c0 .9-.2 1.7-.7 2.6-.3.7-1 1.4-1.7 1.7s-1.5.7-2.6.7c-.9 0-1.7-.2-2.4-.5s-1.4-.9-1.7-1.5c-.5-.7-.7-1.4-.7-2.2h2.9c0 .7.3 1 .7 1.4.3.3.9.5 1.4.5.7 0 1.2-.2 1.5-.7s.5-1.2.5-2.1-.2-1.5-.7-1.9c-.3-.5-1-.7-1.7-.7s-1.2.2-1.7.5l-.3.3zm11.4-4.6c0-.9.3-1.5.9-2.2.5-.5 1.4-.9 2.2-.9 1 0 1.7.3 2.2.9s.9 1.4.9 2.2v.7c0 .9-.3 1.7-.9 2.2-.5.5-1.4.9-2.2.9-1 0-1.7-.3-2.2-.9-.5-.5-.9-1.4-.9-2.2zm1.9.8c0 .3.2.7.3 1 .2.2.5.3.9.3.3 0 .7-.2.9-.3.2-.2.3-.5.3-1v-.7c0-.3-.2-.7-.3-1-.2-.2-.5-.3-.9-.3-.3 0-.7.2-.9.3-.2.2-.3.5-.3 1zm5.1 7.4c0-.9.3-1.7.9-2.2.5-.5 1.4-.9 2.2-.9 1 0 1.7.3 2.2.9.5.5.9 1.4.9 2.2v.7c0 .9-.3 1.5-.9 2.2-.5.5-1.4.9-2.2.9-1 0-1.7-.3-2.4-.9-.5-.5-.9-1.4-.9-2.2v-.7zm1.9.9c0 .3.2.7.3 1 .2.3.5.3.9.3.9 0 1.2-.5 1.2-1.4v-.7c0-.3-.2-.7-.3-1-.2-.2-.5-.3-.9-.3s-.7.2-.9.3c-.2.2-.3.5-.3 1zm-5.1 1.7-1.4-.7 7.2-11.5 1.4.7z" fill="#0d0e38"/><path d="m712.2 315.6v6h-1v-4.5l-1.7 4.5h-.9l-1.7-4.5v4.5h-1v-6h1.2l2 4.8 1.9-4.8zm2.5.7v1.8h2.2v.8h-2.2v1.9h2.5v.8h-3.5v-6.1h3.5v.8zm5.7 2.2 2.7 3.1h-1.2l-2.4-2.8v2.8h-1v-6.1h1v2.8l2.4-2.8h1.2zm7.7-3v.8h-1.7v5.3h-1v-5.3h-1.7v-.8z" fill="#191d23" opacity=".5"/><path d="m645.7 351.9v1.7h2.3v1h-2.3v1.7h2.6v1h-3.8v-6.4h3.8v1zm9.9.3c.6 0 1.1.2 1.5.6s.5.9.5 1.6v2.9h-1.3v-2.8c0-.4-.1-.7-.3-.9s-.5-.3-.8-.3c-.4 0-.6.1-.9.3-.2.2-.3.6-.3 1v2.7h-1.3v-2.8c0-.4-.1-.7-.3-.9s-.5-.3-.8-.3c-.4 0-.6.1-.9.3-.2.2-.3.6-.3 1v2.7h-1.3v-5h1.3v1c.1-.3.3-.6.6-.8s.6-.3 1-.3.8.1 1.1.3.5.5.7.8c.2-.3.4-.6.7-.8.4-.2.7-.3 1.1-.3zm4.4-1.6v6.8h-1.3v-6.8zm6 4v.4h-3.7c0 .5.1.8.4 1 .2.2.5.3.8.3s.5-.1.7-.2.3-.3.4-.6h1.4c-.1.4-.2.7-.4.9s-.5.5-.8.7-.7.2-1.1.2c-.5 0-.9-.1-1.3-.3s-.7-.5-.9-.9-.3-.8-.3-1.4c0-.5.1-1 .3-1.4s.5-.7.9-.9.8-.3 1.3-.3.9.1 1.3.3.7.5.9.9c0 .5.1.9.1 1.3zm-1.3-.1c0-.4-.1-.7-.3-.9s-.5-.3-.9-.3c-.3 0-.6.1-.9.3-.2.2-.4.5-.4.9zm5.2-2.3c.6 0 1.1.2 1.4.6s.5.9.5 1.6v2.9h-1.3v-2.8c0-.4-.1-.7-.3-.9s-.5-.3-.8-.3c-.4 0-.7.1-.9.4-.2.2-.3.6-.3 1v2.7h-1.3v-5.1h1.3v1c.1-.3.4-.6.7-.8.2-.2.6-.3 1-.3zm8.6 1.8c.4.1.7.3.9.6s.4.6.4 1c0 .5-.2 1-.5 1.3-.4.3-.9.5-1.6.5h-2.8v-6.4h2.7c.7 0 1.2.1 1.5.4.4.3.5.7.5 1.2 0 .4-.1.7-.3 1-.2.2-.4.4-.8.4zm-2.3-.4h1.2c.3 0 .6-.1.7-.2.2-.1.3-.4.3-.6s-.1-.5-.2-.6-.4-.2-.8-.2h-1.1v1.6zm1.2 2.7c.3 0 .6-.1.8-.2.2-.2.3-.4.3-.7s-.1-.5-.3-.7-.4-.2-.8-.2h-1.2v1.8zm8.1-1.7v.4h-3.7c0 .5.1.8.4 1 .2.2.5.3.8.3s.5-.1.7-.2.3-.3.4-.6h1.4c-.1.4-.2.7-.4.9s-.5.5-.8.7-.7.2-1.1.2c-.5 0-.9-.1-1.3-.3s-.7-.5-.9-.9-.3-.8-.3-1.4c0-.5.1-1 .3-1.4s.5-.7.9-.9.8-.3 1.3-.3.9.1 1.3.3.7.5.9.9c0 .5.1.9.1 1.3zm-1.3-.1c0-.4-.1-.7-.3-.9s-.5-.3-.9-.3c-.3 0-.6.1-.9.3s-.4.5-.4.9zm4.2-2.3c.4 0 .8.1 1.1.3s.5.5.6.8v-1h1.3v5.1h-1.3v-1.1c-.1.3-.3.6-.6.8s-.7.3-1.1.3-.8-.1-1.2-.3c-.3-.2-.6-.5-.8-.9s-.3-.9-.3-1.4.1-1 .3-1.4.5-.7.8-.9c.4-.2.7-.3 1.2-.3zm.4 1.2c-.4 0-.7.1-1 .4-.2.3-.4.6-.4 1.1s.1.8.4 1.1c.2.3.6.4 1 .4s.7-.1 1-.4.4-.6.4-1.1-.1-.8-.4-1.1-.6-.4-1-.4zm6 2.7 1.3-3.8h1.4l-1.9 5.1h-1.6l-1.9-5.1h1.4zm8.1-1.5v.4h-3.7c0 .5.1.8.4 1 .2.2.5.3.8.3s.5-.1.7-.2.3-.3.4-.6h1.4c-.1.4-.2.7-.4.9s-.5.5-.8.7-.7.2-1.1.2c-.5 0-.9-.1-1.3-.3s-.7-.5-.9-.9-.3-.8-.3-1.4c0-.5.1-1 .3-1.4s.5-.7.9-.9.8-.3 1.3-.3.9.1 1.3.3.7.5.9.9c0 .5.1.9.1 1.3zm-1.3-.1c0-.4-.1-.7-.3-.9s-.5-.3-.9-.3c-.3 0-.6.1-.9.3s-.4.5-.4.9zm3.5-1.2c.2-.3.4-.6.7-.8s.7-.3 1-.3v1.4h-.4c-.9 0-1.4.4-1.4 1.3v2.4h-1.3v-5h1.3v1z" fill="#191d23"/><path d="m677 404.3v41.3c0 1.1-.9 1.9-1.9 1.9-1.1 0-1.9-.9-1.9-1.9v-41.3c0-1.1.9-1.9 1.9-1.9 1 0 1.9.9 1.9 1.9z" fill="#3080e3"/><path d="m664.4 408.1v37.6c0 1.1-.9 1.9-1.9 1.9-1.1 0-1.9-.9-1.9-1.9v-37.6c0-1.1.9-1.9 1.9-1.9 1-.1 1.9.8 1.9 1.9z" fill="#1b1e50"/><path d="m651.3 400.3v45.3c0 1.1-.9 1.9-1.9 1.9-1.1 0-1.9-.9-1.9-1.9v-45.3c0-1.1.9-1.9 1.9-1.9 1.1 0 1.9.9 1.9 1.9z" fill="#3080e3"/><path d="m688.7 392.2v53.4c0 1.1-.9 1.9-1.9 1.9-1.1 0-1.9-.9-1.9-1.9v-53.4c0-1.1.9-1.9 1.9-1.9 1 0 1.9.8 1.9 1.9z" fill="#fd723b"/><path d="m700.4 401.4v44.3c0 1.1-.9 1.9-1.9 1.9-1.1 0-1.9-.9-1.9-1.9v-44.3c0-1.1.9-1.9 1.9-1.9 1.1-.1 1.9.8 1.9 1.9z" fill="#1b1e50"/><path d="m713.9 386v59.6c0 1.1-.9 1.9-1.9 1.9-1.1 0-1.9-.9-1.9-1.9v-59.6c0-1.1.9-1.9 1.9-1.9 1.1 0 1.9.8 1.9 1.9z" fill="#fd723b"/><path d="m727.3 397.9v47.7c0 1.1-.9 1.9-1.9 1.9-1.1 0-1.9-.9-1.9-1.9v-47.7c0-1.1.9-1.9 1.9-1.9 1 0 1.9.9 1.9 1.9z" fill="#1b1e50"/><path d="m602.1 101.3v2.9h-1v-7.4h2.7c.8 0 1.4.2 1.9.6.4.4.7 1 .7 1.6 0 .7-.2 1.3-.7 1.6-.4.4-1.1.6-1.9.6zm0-.8h1.8c.5 0 .9-.1 1.2-.4s.4-.6.4-1-.1-.8-.4-1c-.3-.3-.7-.4-1.1-.4h-1.8zm11 1.3c-.1.8-.4 1.4-.9 1.8s-1.1.7-1.9.7c-.9 0-1.6-.3-2.1-1-.5-.6-.8-1.5-.8-2.5v-.8c0-.7.1-1.3.4-1.8.2-.5.6-.9 1-1.2s1-.4 1.6-.4c.8 0 1.4.2 1.9.7.4.4.7 1 .8 1.8h-1c-.1-.6-.3-1-.5-1.3-.3-.3-.7-.4-1.2-.4-.6 0-1.1.2-1.5.7-.4.4-.5 1.1-.5 1.9v.7c0 .8.1 1.4.5 1.9.4.4.8.7 1.4.7.5 0 1-.1 1.3-.4.3-.2.5-.7.6-1.3zm8.4-.3c0 .8-.2 1.5-.6 2s-.9.7-1.6.7-1.2-.2-1.6-.7v2.7h-1v-7.6h.9l.1.6c.4-.4.9-.7 1.6-.7s1.2.2 1.6.7.6 1.2.6 2.1zm-1-.1c0-.6-.1-1.1-.4-1.5s-.6-.5-1.1-.5c-.6 0-1 .2-1.3.7v2.6c.3.5.7.7 1.3.7.4 0 .8-.1 1-.5.5-.3.5-.8.5-1.5zm4.5 2.9c-.7 0-1.3-.2-1.8-.7-.4-.5-.7-1.1-.7-1.9v-.1c0-.5.1-1 .3-1.5.2-.4.5-.7.9-1 .4-.2.8-.4 1.2-.4.7 0 1.3.2 1.6.7.4.4.6 1.1.6 2v.4h-3.7c0 .5.1 1 .4 1.3s.7.5 1.2.5c.3 0 .6-.1.8-.2s.4-.3.6-.5l.6.4c-.4.7-1.1 1-2 1zm-.2-4.9c-.4 0-.7.1-1 .4-.2.3-.4.7-.4 1.2h2.7v-.1c0-.4-.1-.8-.4-1.1-.1-.3-.4-.4-.9-.4zm6 .1c-.1 0-.3 0-.4 0-.6 0-1 .3-1.3.8v3.9h-1v-5.5h.9v.7c.3-.5.7-.7 1.3-.7.1 0 .3 0 .4.1zm1.5 4.7v-4.7h-.9v-.7h.9v-.6c0-.6.1-1 .4-1.3s.7-.5 1.3-.5c.2 0 .4 0 .7.1l-.1.7c-.1 0-.3-.1-.5-.1-.3 0-.5.1-.7.3-.1.1-.2.4-.2.7v.6h1.2v.7h-1.2v4.7zm2.8-2.8c0-.5.1-1 .3-1.5.2-.4.5-.7.9-1 .4-.2.8-.4 1.3-.4.7 0 1.3.2 1.8.7.4.5.7 1.2.7 2.1v.1c0 .5-.1 1-.3 1.4s-.5.7-.9 1-.8.4-1.3.4c-.7 0-1.3-.2-1.8-.7-.4-.5-.7-1.2-.7-2.1zm1 .1c0 .6.1 1.1.4 1.5s.7.5 1.1.5.9-.2 1.1-.6c.3-.4.4-.9.4-1.6 0-.6-.1-1.1-.4-1.5s-.7-.6-1.1-.6-.8.1-1.1.5c-.2.6-.4 1.2-.4 1.8zm7.9-2c-.1 0-.3 0-.4 0-.6 0-1 .3-1.3.8v3.9h-1v-5.5h.9v.7c.3-.5.7-.7 1.3-.7.1 0 .3 0 .4.1zm1.8-.8v.6c.4-.4 1-.7 1.6-.7.7 0 1.3.3 1.6.9.1-.3.4-.4.7-.7.3-.1.7-.2 1-.2 1.2 0 1.8.7 1.9 1.9v3.7h-1v-3.6c0-.4-.1-.7-.3-.9-.1-.2-.4-.3-.9-.3-.4 0-.7.1-.9.3s-.4.5-.4.8v3.6h-1v-3.6c0-.8-.4-1.2-1.2-1.2-.6 0-1 .3-1.3.8v4h-1v-5.5zm11.5 5.5c-.1-.1-.1-.3-.1-.6-.4.4-1 .7-1.6.7-.5 0-1-.1-1.3-.4-.4-.3-.5-.7-.5-1.2 0-.6.2-1 .7-1.3.4-.3 1-.4 1.9-.4h.9v-.4c0-.3-.1-.6-.3-.8s-.5-.3-.9-.3-.6.1-.8.2-.4.4-.4.6h-1c0-.3.1-.5.3-.8.2-.2.4-.4.8-.6.4-.1.7-.2 1.1-.2.7 0 1.1.1 1.5.4s.5.7.6 1.3v2.5c0 .5.1.9.2 1.2v-.1h-1v.2zm-1.5-.7c.3 0 .6-.1.8-.2.3-.1.4-.4.6-.6v-1.1h-.7c-1.1 0-1.7.4-1.7 1 0 .3.1.5.3.7.2.1.4.2.7.2zm4.7-4.8v.7c.4-.5 1-.8 1.6-.8 1.2 0 1.8.7 1.8 1.9v3.6h-1v-3.6c0-.4-.1-.7-.3-.9-.1-.2-.4-.3-.8-.3-.3 0-.6.1-.8.2s-.4.4-.5.7v3.9h-1v-5.5zm7.1 4.8c.4 0 .6-.1.9-.3.2-.2.4-.4.4-.7h.9c0 .3-.1.6-.3.9s-.4.5-.8.7c-.3.1-.7.2-1 .2-.7 0-1.3-.2-1.8-.7-.4-.5-.7-1.2-.7-2.1v-.1c0-.5.1-1 .3-1.4s.4-.7.8-1 .8-.4 1.3-.4c.6 0 1.1.1 1.6.5.4.4.6.8.7 1.4h-.9c0-.4-.1-.7-.4-.9s-.5-.4-.9-.4-.8.1-1.1.5-.4.8-.4 1.5v.1c0 .7.1 1.1.4 1.5.2.4.5.7 1 .7zm5.5.8c-.7 0-1.3-.2-1.8-.7-.4-.5-.7-1.1-.7-1.9v-.1c0-.5.1-1 .3-1.5.2-.4.5-.7.9-1 .4-.2.8-.4 1.2-.4.7 0 1.3.2 1.6.7.4.4.6 1.1.6 2v.4h-3.7c0 .5.1 1 .4 1.3s.7.5 1.2.5c.3 0 .6-.1.8-.2s.4-.3.6-.5l.6.4c-.4.7-1.1 1-2 1zm-.2-4.9c-.4 0-.7.1-1 .4-.2.3-.4.7-.4 1.2h2.7v-.1c0-.4-.1-.8-.4-1.1-.1-.3-.4-.4-.9-.4z" fill="#8e99ab" opacity=".7"/><path d="m573.1 94.4h-9.1-8.1c-1.4 0-2.6-1.1-2.6-2.6v-9c0-1.4 1.1-2.6 2.6-2.6h17.2c1.4 0 2.6 1.1 2.6 2.6v9c0 1.5-1.2 2.6-2.6 2.6z" fill="#fff"/><path d="m568.2 98.7h-7.3c-.4 0-.7-.3-.7-.7 0-.4.3-.7.7-.7h7.3c.4 0 .7.3.7.7 0 .4-.4.7-.7.7z" fill="#fff"/><path d="m563.9 94.1h1.2v3.5h-1.2z" fill="#fff"/><path d="m572.8 92.9h-16.6c-.8 0-1.4-.6-1.4-1.4v-8.3c0-.8.6-1.4 1.4-1.4h16.6c.8 0 1.4.6 1.4 1.4v8.3c-.1.8-.7 1.4-1.4 1.4z" fill="#fd723b"/></svg>